%
M48
M72
T01C0.03600
T02C0.03937
T03C0.12598
%
T01
X75613Y10843
X85613Y10843
X95613Y10843
X105613Y10843
X117620Y33402
X117620Y43402
X117542Y60528
X117542Y70528
X105219Y91630
X95219Y91630
X85219Y91630
X75219Y91630
T02
X68920Y69209
X78920Y64209
X68920Y59209
X78920Y54209
X68920Y49209
X78920Y44209
X68920Y39209
X78920Y34209
T03
X43920Y29209
X52660Y9268
X43920Y74209
X52660Y93126
M30
