G75*
%MOIN*%
%OFA0B0*%
%FSLAX25Y25*%
%IPPOS*%
%LPD*%
%AMOC8*
5,1,8,0,0,1.08239X$1,22.5*
%
%ADD10C,0.05600*%
%ADD11C,0.05937*%
%ADD12R,0.05937X0.05937*%
%ADD13C,0.02400*%
D10*
X0075613Y0008074D02*
X0075613Y0013674D01*
X0085613Y0013674D02*
X0085613Y0008074D01*
X0095613Y0008074D02*
X0095613Y0013674D01*
X0105613Y0013674D02*
X0105613Y0008074D01*
X0114742Y0046780D02*
X0120342Y0046780D01*
X0120342Y0056780D02*
X0114742Y0056780D01*
X0105219Y0088861D02*
X0105219Y0094461D01*
X0095219Y0094461D02*
X0095219Y0088861D01*
X0085219Y0088861D02*
X0085219Y0094461D01*
X0075219Y0094461D02*
X0075219Y0088861D01*
D11*
X0078920Y0064240D03*
X0068920Y0059240D03*
X0078920Y0054240D03*
X0068920Y0049240D03*
X0078920Y0044240D03*
X0068920Y0039240D03*
X0078920Y0034240D03*
D12*
X0068920Y0069240D03*
D13*
X0068920Y0032016D02*
X0072739Y0025835D01*
X0095967Y0026228D01*
X0099904Y0029142D01*
X0117542Y0046780D01*
X0103841Y0054181D02*
X0103841Y0090283D01*
X0105219Y0091661D01*
X0095219Y0091661D02*
X0095219Y0059339D01*
X0084156Y0048276D01*
X0080199Y0044339D01*
X0078920Y0044240D01*
X0068920Y0039240D02*
X0068920Y0032016D01*
X0078920Y0034240D02*
X0083900Y0034240D01*
X0103841Y0054181D01*
X0086124Y0058118D02*
X0086124Y0090756D01*
X0085219Y0091661D01*
X0076282Y0090598D02*
X0075219Y0091661D01*
X0076282Y0090598D02*
X0076282Y0079772D01*
X0079038Y0077016D01*
X0079038Y0064240D01*
X0078920Y0064240D01*
X0086124Y0058118D02*
X0082246Y0054240D01*
X0078920Y0054240D01*
M02*
