%
M48
M72
T01C0.03600
T02C0.03937
T03C0.12598
%
T01
X75613Y10874
X85613Y10874
X95613Y10874
X105613Y10874
X117542Y46780
X117542Y56780
X105219Y91661
X95219Y91661
X85219Y91661
X75219Y91661
T02
X68920Y69240
X78920Y64240
X68920Y59240
X78920Y54240
X68920Y49240
X78920Y44240
X68920Y39240
X78920Y34240
T03
X43920Y29240
X52660Y9299
X43920Y74240
X52660Y93157
M30
