G75*
%MOIN*%
%OFA0B0*%
%FSLAX25Y25*%
%IPPOS*%
%LPD*%
%AMOC8*
5,1,8,0,0,1.08239X$1,22.5*
%
%ADD10C,0.00400*%
D10*
X0056315Y0016160D02*
X0061519Y0016160D01*
X0058917Y0016160D02*
X0058917Y0019630D01*
X0058917Y0021316D02*
X0058917Y0024786D01*
X0059785Y0024786D02*
X0056315Y0024786D01*
X0057182Y0026473D02*
X0056315Y0027340D01*
X0056315Y0029075D01*
X0057182Y0029942D01*
X0056315Y0031629D02*
X0061519Y0031629D01*
X0060652Y0029942D02*
X0061519Y0029075D01*
X0061519Y0027340D01*
X0060652Y0026473D01*
X0057182Y0026473D01*
X0059785Y0024786D02*
X0061519Y0023051D01*
X0059785Y0021316D01*
X0056315Y0021316D01*
X0056315Y0019630D02*
X0061519Y0019630D01*
X0074513Y0020917D02*
X0074513Y0023986D01*
X0076815Y0025520D02*
X0076815Y0028590D01*
X0074513Y0027822D02*
X0079117Y0027822D01*
X0076815Y0025520D01*
X0079117Y0020917D02*
X0074513Y0020917D01*
X0084356Y0020917D02*
X0084356Y0023986D01*
X0085123Y0025520D02*
X0084356Y0026288D01*
X0084356Y0027822D01*
X0085123Y0028590D01*
X0085891Y0028590D01*
X0086658Y0027822D01*
X0086658Y0027055D01*
X0086658Y0027822D02*
X0087425Y0028590D01*
X0088193Y0028590D01*
X0088960Y0027822D01*
X0088960Y0026288D01*
X0088193Y0025520D01*
X0088960Y0020917D02*
X0084356Y0020917D01*
X0094198Y0020917D02*
X0094198Y0023986D01*
X0094198Y0025520D02*
X0097268Y0028590D01*
X0098035Y0028590D01*
X0098802Y0027822D01*
X0098802Y0026288D01*
X0098035Y0025520D01*
X0094198Y0025520D02*
X0094198Y0028590D01*
X0094198Y0020917D02*
X0098802Y0020917D01*
X0104041Y0020917D02*
X0104041Y0023986D01*
X0104041Y0025520D02*
X0104041Y0028590D01*
X0104041Y0027055D02*
X0108645Y0027055D01*
X0107110Y0025520D01*
X0108645Y0020917D02*
X0104041Y0020917D01*
X0061519Y0035099D02*
X0058050Y0031629D01*
X0058917Y0032497D02*
X0056315Y0035099D01*
X0057182Y0036786D02*
X0056315Y0037653D01*
X0056315Y0039388D01*
X0057182Y0040255D01*
X0058050Y0040255D01*
X0058917Y0039388D01*
X0058917Y0037653D01*
X0059785Y0036786D01*
X0060652Y0036786D01*
X0061519Y0037653D01*
X0061519Y0039388D01*
X0060652Y0040255D01*
X0060652Y0041942D02*
X0057182Y0041942D01*
X0056315Y0042809D01*
X0056315Y0044544D01*
X0057182Y0045412D01*
X0056315Y0047098D02*
X0056315Y0048833D01*
X0056315Y0047966D02*
X0061519Y0047966D01*
X0061519Y0048833D02*
X0061519Y0047098D01*
X0060652Y0045412D02*
X0061519Y0044544D01*
X0061519Y0042809D01*
X0060652Y0041942D01*
X0061519Y0050536D02*
X0056315Y0050536D01*
X0056315Y0054006D01*
X0056315Y0055692D02*
X0061519Y0055692D01*
X0056315Y0059162D01*
X0061519Y0059162D01*
X0060652Y0060849D02*
X0057182Y0060849D01*
X0056315Y0061716D01*
X0056315Y0063451D01*
X0057182Y0064318D01*
X0056315Y0066005D02*
X0056315Y0069475D01*
X0056315Y0071162D02*
X0056315Y0072029D01*
X0057182Y0072029D01*
X0057182Y0071162D01*
X0056315Y0071162D01*
X0056315Y0073740D02*
X0056315Y0075475D01*
X0056315Y0074607D02*
X0061519Y0074607D01*
X0061519Y0073740D02*
X0061519Y0075475D01*
X0060652Y0077177D02*
X0057182Y0077177D01*
X0056315Y0078045D01*
X0056315Y0079780D01*
X0057182Y0080647D01*
X0060652Y0080647D01*
X0061519Y0079780D01*
X0061519Y0078045D01*
X0060652Y0077177D01*
X0061519Y0069475D02*
X0061519Y0066005D01*
X0056315Y0066005D01*
X0058917Y0066005D02*
X0058917Y0067740D01*
X0060652Y0064318D02*
X0061519Y0063451D01*
X0061519Y0061716D01*
X0060652Y0060849D01*
X0061519Y0054006D02*
X0061519Y0050536D01*
X0058917Y0050536D02*
X0058917Y0052271D01*
X0074513Y0074066D02*
X0074513Y0077135D01*
X0074513Y0078670D02*
X0074513Y0081739D01*
X0074513Y0080205D02*
X0079117Y0080205D01*
X0077583Y0078670D01*
X0079117Y0074066D02*
X0074513Y0074066D01*
X0084356Y0074066D02*
X0084356Y0077135D01*
X0084356Y0078670D02*
X0087425Y0081739D01*
X0088193Y0081739D01*
X0088960Y0080972D01*
X0088960Y0079437D01*
X0088193Y0078670D01*
X0084356Y0078670D02*
X0084356Y0081739D01*
X0084356Y0074066D02*
X0088960Y0074066D01*
X0094198Y0074066D02*
X0094198Y0077135D01*
X0094966Y0078670D02*
X0094198Y0079437D01*
X0094198Y0080972D01*
X0094966Y0081739D01*
X0095733Y0081739D01*
X0096500Y0080972D01*
X0096500Y0080205D01*
X0096500Y0080972D02*
X0097268Y0081739D01*
X0098035Y0081739D01*
X0098802Y0080972D01*
X0098802Y0079437D01*
X0098035Y0078670D01*
X0098802Y0074066D02*
X0094198Y0074066D01*
X0104041Y0074066D02*
X0104041Y0077135D01*
X0106343Y0078670D02*
X0106343Y0081739D01*
X0104041Y0080972D02*
X0108645Y0080972D01*
X0106343Y0078670D01*
X0108645Y0074066D02*
X0104041Y0074066D01*
M02*
