G75*
%MOIN*%
%OFA0B0*%
%FSLAX25Y25*%
%IPPOS*%
%LPD*%
%AMOC8*
5,1,8,0,0,1.08239X$1,22.5*
%
%ADD10C,0.00300*%
%ADD11R,0.00100X0.01200*%
%ADD12R,0.00100X0.01400*%
%ADD13R,0.00100X0.07800*%
%ADD14R,0.00100X0.01600*%
%ADD15R,0.00100X0.01800*%
%ADD16R,0.00100X0.08200*%
%ADD17R,0.00100X0.02000*%
%ADD18R,0.00100X0.08600*%
%ADD19R,0.00100X0.02200*%
%ADD20R,0.00100X0.08800*%
%ADD21R,0.00100X0.09000*%
%ADD22R,0.00100X0.09200*%
%ADD23R,0.00100X0.09400*%
%ADD24R,0.00100X0.09600*%
%ADD25R,0.00100X0.09800*%
%ADD26R,0.00100X0.02600*%
%ADD27R,0.00100X0.02400*%
%ADD28R,0.00100X0.07200*%
%ADD29R,0.00100X0.08400*%
%ADD30R,0.00100X0.08000*%
%ADD31C,0.00600*%
%ADD32C,0.00500*%
%ADD33C,0.00800*%
D10*
X0088243Y0031295D02*
X0088860Y0030678D01*
X0090094Y0030678D01*
X0090712Y0031295D01*
X0090712Y0031912D01*
X0090094Y0032529D01*
X0088860Y0032529D01*
X0088243Y0033146D01*
X0088243Y0033764D01*
X0088860Y0034381D01*
X0090094Y0034381D01*
X0090712Y0033764D01*
X0091926Y0034381D02*
X0094395Y0034381D01*
X0093160Y0034381D02*
X0093160Y0030678D01*
X0095609Y0030678D02*
X0095609Y0033146D01*
X0096844Y0034381D01*
X0098078Y0033146D01*
X0098078Y0030678D01*
X0099292Y0030678D02*
X0099292Y0034381D01*
X0101144Y0034381D01*
X0101761Y0033764D01*
X0101761Y0032529D01*
X0101144Y0031912D01*
X0099292Y0031912D01*
X0100527Y0031912D02*
X0101761Y0030678D01*
X0104210Y0030678D02*
X0104210Y0034381D01*
X0105444Y0034381D02*
X0102975Y0034381D01*
X0098078Y0032529D02*
X0095609Y0032529D01*
X0096617Y0040520D02*
X0094148Y0040520D01*
X0094148Y0044223D01*
X0096617Y0044223D01*
X0097832Y0044223D02*
X0100300Y0040520D01*
X0100300Y0044223D01*
X0101515Y0044223D02*
X0103366Y0044223D01*
X0103983Y0043606D01*
X0103983Y0041137D01*
X0103366Y0040520D01*
X0101515Y0040520D01*
X0101515Y0044223D01*
X0097832Y0044223D02*
X0097832Y0040520D01*
X0095383Y0042372D02*
X0094148Y0042372D01*
X0094766Y0060205D02*
X0096000Y0060205D01*
X0096617Y0060822D01*
X0096617Y0062057D01*
X0095383Y0062057D01*
X0096617Y0063291D02*
X0096000Y0063908D01*
X0094766Y0063908D01*
X0094148Y0063291D01*
X0094148Y0060822D01*
X0094766Y0060205D01*
X0097832Y0060205D02*
X0097832Y0063908D01*
X0100300Y0060205D01*
X0100300Y0063908D01*
X0101515Y0063908D02*
X0103366Y0063908D01*
X0103983Y0063291D01*
X0103983Y0060822D01*
X0103366Y0060205D01*
X0101515Y0060205D01*
X0101515Y0063908D01*
X0102749Y0068079D02*
X0103983Y0069314D01*
X0103983Y0071782D01*
X0101515Y0071782D02*
X0101515Y0069314D01*
X0102749Y0068079D01*
X0100300Y0068696D02*
X0100300Y0069931D01*
X0099683Y0070548D01*
X0099066Y0070548D01*
X0097832Y0069931D01*
X0097832Y0071782D01*
X0100300Y0071782D01*
X0096617Y0069931D02*
X0094148Y0069931D01*
X0095383Y0071165D02*
X0095383Y0068696D01*
X0097832Y0068696D02*
X0098449Y0068079D01*
X0099683Y0068079D01*
X0100300Y0068696D01*
D11*
X0113543Y0078250D03*
X0113643Y0078250D03*
X0123343Y0078250D03*
X0123443Y0078250D03*
X0123443Y0086050D03*
X0123343Y0086050D03*
X0113643Y0086050D03*
X0113543Y0086050D03*
D12*
X0113543Y0082150D03*
X0113643Y0082150D03*
X0123343Y0082150D03*
X0123443Y0082150D03*
D13*
X0123443Y0092550D03*
X0123343Y0092550D03*
X0119443Y0094350D03*
X0119343Y0094350D03*
X0113643Y0094550D03*
X0113543Y0094550D03*
D14*
X0113743Y0086050D03*
X0113843Y0086050D03*
X0123143Y0086050D03*
X0123243Y0086050D03*
X0123243Y0078250D03*
X0123143Y0078250D03*
X0113843Y0078250D03*
X0113743Y0078250D03*
D15*
X0113743Y0082150D03*
X0113843Y0082150D03*
X0113943Y0082150D03*
X0114043Y0082150D03*
X0122943Y0082150D03*
X0123043Y0082150D03*
X0123143Y0082150D03*
X0123243Y0082150D03*
D16*
X0123243Y0092750D03*
X0123143Y0092750D03*
X0119243Y0094150D03*
X0119143Y0094150D03*
X0117843Y0092950D03*
X0117743Y0092950D03*
D17*
X0114043Y0086050D03*
X0113943Y0086050D03*
X0122943Y0086050D03*
X0123043Y0086050D03*
X0123043Y0078250D03*
X0122943Y0078250D03*
X0122843Y0078250D03*
X0122743Y0078250D03*
X0114243Y0078250D03*
X0114143Y0078250D03*
X0114043Y0078250D03*
X0113943Y0078250D03*
D18*
X0122943Y0092950D03*
X0123043Y0092950D03*
X0118843Y0093750D03*
X0118743Y0093750D03*
X0118643Y0093550D03*
X0118543Y0093550D03*
X0114043Y0094150D03*
X0113943Y0094150D03*
D19*
X0116143Y0089750D03*
X0116243Y0089750D03*
X0116343Y0089750D03*
X0116443Y0089750D03*
X0116543Y0089750D03*
X0116643Y0089750D03*
X0116743Y0089750D03*
X0116843Y0089750D03*
X0116943Y0089750D03*
X0117043Y0089750D03*
X0117043Y0085950D03*
X0116943Y0085950D03*
X0116843Y0085950D03*
X0116743Y0085950D03*
X0116643Y0085950D03*
X0116543Y0085950D03*
X0116443Y0085950D03*
X0116343Y0085950D03*
X0116243Y0085950D03*
X0116143Y0085950D03*
X0116043Y0085950D03*
X0115943Y0085950D03*
X0115843Y0085950D03*
X0115743Y0085950D03*
X0115643Y0085950D03*
X0115543Y0085950D03*
X0115443Y0085950D03*
X0115343Y0085950D03*
X0115243Y0085950D03*
X0115143Y0085950D03*
X0115043Y0085950D03*
X0114943Y0085950D03*
X0114843Y0085950D03*
X0114743Y0085950D03*
X0114643Y0085950D03*
X0114543Y0085950D03*
X0114443Y0085950D03*
X0114343Y0085950D03*
X0114243Y0085950D03*
X0114143Y0085950D03*
X0117143Y0085950D03*
X0117243Y0085950D03*
X0117343Y0085950D03*
X0117443Y0085950D03*
X0117543Y0085950D03*
X0117643Y0085950D03*
X0117743Y0085950D03*
X0117843Y0085950D03*
X0117943Y0085950D03*
X0118043Y0085950D03*
X0118143Y0085950D03*
X0118243Y0085950D03*
X0118343Y0085950D03*
X0118443Y0085950D03*
X0118543Y0085950D03*
X0118643Y0085950D03*
X0118743Y0085950D03*
X0118843Y0085950D03*
X0118943Y0085950D03*
X0119043Y0085950D03*
X0119143Y0085950D03*
X0119243Y0085950D03*
X0119343Y0085950D03*
X0119443Y0085950D03*
X0119543Y0085950D03*
X0119643Y0085950D03*
X0119743Y0085950D03*
X0119843Y0085950D03*
X0119943Y0085950D03*
X0120043Y0085950D03*
X0120143Y0085950D03*
X0120243Y0085950D03*
X0120343Y0085950D03*
X0120443Y0085950D03*
X0120543Y0085950D03*
X0120643Y0085950D03*
X0120743Y0085950D03*
X0120843Y0085950D03*
X0120943Y0085950D03*
X0121043Y0085950D03*
X0121143Y0085950D03*
X0121243Y0085950D03*
X0121343Y0085950D03*
X0121443Y0085950D03*
X0121543Y0085950D03*
X0121643Y0085950D03*
X0121743Y0085950D03*
X0121843Y0085950D03*
X0121943Y0085950D03*
X0122043Y0085950D03*
X0122143Y0085950D03*
X0122243Y0085950D03*
X0122343Y0085950D03*
X0122443Y0085950D03*
X0122543Y0085950D03*
X0122643Y0085950D03*
X0122743Y0085950D03*
X0122843Y0085950D03*
X0122843Y0082150D03*
X0122743Y0082150D03*
X0122643Y0082150D03*
X0122543Y0082150D03*
X0122443Y0082150D03*
X0122343Y0082150D03*
X0122243Y0082150D03*
X0122143Y0082150D03*
X0122043Y0082150D03*
X0121943Y0082150D03*
X0121843Y0082150D03*
X0121743Y0082150D03*
X0121643Y0082150D03*
X0121543Y0082150D03*
X0121443Y0082150D03*
X0121343Y0082150D03*
X0121243Y0082150D03*
X0121143Y0082150D03*
X0121043Y0082150D03*
X0120943Y0082150D03*
X0120843Y0082150D03*
X0120743Y0082150D03*
X0120643Y0082150D03*
X0120543Y0082150D03*
X0120443Y0082150D03*
X0120343Y0082150D03*
X0120243Y0082150D03*
X0120143Y0082150D03*
X0120043Y0082150D03*
X0119943Y0082150D03*
X0119843Y0082150D03*
X0119743Y0082150D03*
X0119643Y0082150D03*
X0119543Y0082150D03*
X0119443Y0082150D03*
X0119343Y0082150D03*
X0119243Y0082150D03*
X0119143Y0082150D03*
X0119043Y0082150D03*
X0118943Y0082150D03*
X0118843Y0082150D03*
X0118743Y0082150D03*
X0118643Y0082150D03*
X0118543Y0082150D03*
X0118443Y0082150D03*
X0118343Y0082150D03*
X0118243Y0082150D03*
X0118143Y0082150D03*
X0118043Y0082150D03*
X0117943Y0082150D03*
X0117843Y0082150D03*
X0117743Y0082150D03*
X0117643Y0082150D03*
X0117543Y0082150D03*
X0117443Y0082150D03*
X0117343Y0082150D03*
X0117243Y0082150D03*
X0117143Y0082150D03*
X0117043Y0082150D03*
X0116943Y0082150D03*
X0116843Y0082150D03*
X0116743Y0082150D03*
X0116643Y0082150D03*
X0116543Y0082150D03*
X0116443Y0082150D03*
X0116343Y0082150D03*
X0116243Y0082150D03*
X0116143Y0082150D03*
X0116043Y0082150D03*
X0115943Y0082150D03*
X0115843Y0082150D03*
X0115743Y0082150D03*
X0115643Y0082150D03*
X0115543Y0082150D03*
X0115443Y0082150D03*
X0115343Y0082150D03*
X0115243Y0082150D03*
X0115143Y0082150D03*
X0115043Y0082150D03*
X0114943Y0082150D03*
X0114843Y0082150D03*
X0114743Y0082150D03*
X0114643Y0082150D03*
X0114543Y0082150D03*
X0114443Y0082150D03*
X0114343Y0082150D03*
X0114243Y0082150D03*
X0114143Y0082150D03*
X0114343Y0078350D03*
X0114443Y0078350D03*
X0114543Y0078350D03*
X0114643Y0078350D03*
X0114743Y0078350D03*
X0114843Y0078350D03*
X0114943Y0078350D03*
X0115043Y0078350D03*
X0115143Y0078350D03*
X0115243Y0078350D03*
X0115343Y0078350D03*
X0115443Y0078350D03*
X0115543Y0078350D03*
X0115643Y0078350D03*
X0115743Y0078350D03*
X0115843Y0078350D03*
X0115943Y0078350D03*
X0116043Y0078350D03*
X0116143Y0078350D03*
X0116243Y0078350D03*
X0116343Y0078350D03*
X0116443Y0078350D03*
X0116543Y0078350D03*
X0116643Y0078350D03*
X0116743Y0078350D03*
X0116843Y0078350D03*
X0116943Y0078350D03*
X0117043Y0078350D03*
X0117143Y0078350D03*
X0117243Y0078350D03*
X0117343Y0078350D03*
X0117443Y0078350D03*
X0117543Y0078350D03*
X0117643Y0078350D03*
X0117743Y0078350D03*
X0117843Y0078350D03*
X0117943Y0078350D03*
X0118043Y0078350D03*
X0118143Y0078350D03*
X0118243Y0078350D03*
X0118343Y0078350D03*
X0118443Y0078350D03*
X0118543Y0078350D03*
X0118643Y0078350D03*
X0118743Y0078350D03*
X0118843Y0078350D03*
X0118943Y0078350D03*
X0119043Y0078350D03*
X0119143Y0078350D03*
X0119243Y0078350D03*
X0119343Y0078350D03*
X0119443Y0078350D03*
X0119543Y0078350D03*
X0119643Y0078350D03*
X0119743Y0078350D03*
X0119843Y0078350D03*
X0119943Y0078350D03*
X0120043Y0078350D03*
X0120143Y0078350D03*
X0120243Y0078350D03*
X0120343Y0078350D03*
X0120443Y0078350D03*
X0120543Y0078350D03*
X0120643Y0078350D03*
X0120743Y0078350D03*
X0120843Y0078350D03*
X0120943Y0078350D03*
X0121043Y0078350D03*
X0121143Y0078350D03*
X0121243Y0078350D03*
X0121343Y0078350D03*
X0121443Y0078350D03*
X0121543Y0078350D03*
X0121643Y0078350D03*
X0121743Y0078350D03*
X0121843Y0078350D03*
X0121943Y0078350D03*
X0122043Y0078350D03*
X0122143Y0078350D03*
X0122243Y0078350D03*
X0122343Y0078350D03*
X0122443Y0078350D03*
X0122543Y0078350D03*
X0122643Y0078350D03*
X0120843Y0097350D03*
X0120743Y0097350D03*
X0120643Y0097350D03*
X0120543Y0097350D03*
X0120443Y0097350D03*
X0120343Y0097350D03*
X0120243Y0097350D03*
X0120143Y0097350D03*
D20*
X0122743Y0093050D03*
X0122843Y0093050D03*
X0114243Y0094050D03*
X0114143Y0094050D03*
D21*
X0114343Y0093950D03*
X0114443Y0093950D03*
X0122543Y0093150D03*
X0122643Y0093150D03*
D22*
X0122443Y0093250D03*
X0122343Y0093250D03*
X0114643Y0093850D03*
X0114543Y0093850D03*
D23*
X0114743Y0093750D03*
X0114843Y0093750D03*
X0121943Y0093350D03*
X0122043Y0093350D03*
X0122143Y0093350D03*
X0122243Y0093350D03*
D24*
X0121843Y0093450D03*
X0121743Y0093450D03*
X0121643Y0093450D03*
X0121543Y0093450D03*
X0115443Y0093650D03*
X0115343Y0093650D03*
X0115243Y0093650D03*
X0115143Y0093650D03*
X0115043Y0093650D03*
X0114943Y0093650D03*
D25*
X0115543Y0093550D03*
X0115643Y0093550D03*
X0121343Y0093550D03*
X0121443Y0093550D03*
D26*
X0121243Y0097150D03*
X0121143Y0097150D03*
X0119843Y0097150D03*
X0119743Y0097150D03*
X0115843Y0089950D03*
X0115743Y0089950D03*
D27*
X0115943Y0089850D03*
X0116043Y0089850D03*
X0117143Y0089850D03*
X0117243Y0089850D03*
X0119943Y0097250D03*
X0120043Y0097250D03*
X0120943Y0097250D03*
X0121043Y0097250D03*
D28*
X0119643Y0094650D03*
X0119543Y0094650D03*
X0117443Y0092250D03*
X0117343Y0092250D03*
D29*
X0117943Y0093050D03*
X0118043Y0093050D03*
X0118143Y0093250D03*
X0118243Y0093250D03*
X0118343Y0093450D03*
X0118443Y0093450D03*
X0118943Y0093850D03*
X0119043Y0093850D03*
X0113843Y0094250D03*
X0113743Y0094250D03*
D30*
X0117543Y0092650D03*
X0117643Y0092650D03*
D31*
X0109219Y0097630D02*
X0109219Y0098630D01*
X0107719Y0098630D01*
X0107719Y0097630D01*
X0107719Y0096630D01*
X0102719Y0096630D01*
X0102719Y0097630D01*
X0101219Y0097630D01*
X0101219Y0085130D01*
X0100219Y0086130D01*
X0099219Y0085130D01*
X0099219Y0097630D01*
X0097719Y0097630D01*
X0097719Y0096630D01*
X0092719Y0096630D01*
X0092719Y0097630D01*
X0091219Y0097630D01*
X0091219Y0084630D01*
X0089219Y0084630D01*
X0081719Y0084630D01*
X0081219Y0085130D01*
X0081219Y0097630D01*
X0079219Y0097630D01*
X0079219Y0085130D01*
X0078719Y0084630D02*
X0071219Y0084630D01*
X0071219Y0081630D01*
X0074219Y0081630D01*
X0074219Y0081130D01*
X0076219Y0081130D01*
X0076219Y0081630D01*
X0079219Y0081630D01*
X0079219Y0082130D01*
X0081219Y0082130D01*
X0081219Y0081630D01*
X0084219Y0081630D01*
X0084219Y0081130D01*
X0086219Y0081130D01*
X0086219Y0081630D01*
X0089219Y0081630D01*
X0089219Y0082130D01*
X0091219Y0082130D01*
X0091219Y0081630D01*
X0094219Y0081630D01*
X0094219Y0081130D01*
X0096219Y0081130D01*
X0096219Y0081630D01*
X0099219Y0081630D01*
X0099219Y0082130D01*
X0101219Y0082130D01*
X0101219Y0081630D01*
X0104219Y0081630D01*
X0104219Y0081130D01*
X0106219Y0081130D01*
X0106219Y0081630D01*
X0109219Y0081630D01*
X0109219Y0084630D01*
X0101719Y0084630D01*
X0101219Y0085130D01*
X0099219Y0085130D02*
X0098719Y0084630D01*
X0091219Y0084630D01*
X0089219Y0084630D02*
X0089219Y0097630D01*
X0087719Y0097630D01*
X0087719Y0096630D01*
X0082719Y0096630D01*
X0082719Y0097630D01*
X0081219Y0097630D01*
X0082719Y0097630D02*
X0082719Y0098630D01*
X0077719Y0098630D01*
X0077719Y0097630D01*
X0077719Y0096630D01*
X0072719Y0096630D01*
X0072719Y0097630D01*
X0071219Y0097630D01*
X0071219Y0098630D01*
X0072719Y0098630D01*
X0072719Y0097630D01*
X0071219Y0097630D02*
X0071219Y0084630D01*
X0078719Y0084630D02*
X0080219Y0086130D01*
X0081219Y0085130D01*
X0079219Y0097630D02*
X0077719Y0097630D01*
X0079219Y0100130D02*
X0079219Y0100630D01*
X0071219Y0100630D01*
X0071219Y0098630D01*
X0079219Y0100130D02*
X0081219Y0100130D01*
X0081219Y0100630D01*
X0089219Y0100630D01*
X0089219Y0100130D01*
X0091219Y0100130D01*
X0091219Y0100630D01*
X0099219Y0100630D01*
X0099219Y0100130D01*
X0101219Y0100130D01*
X0101219Y0100630D01*
X0109219Y0100630D01*
X0109219Y0098630D01*
X0109219Y0097630D02*
X0107719Y0097630D01*
X0109219Y0097630D02*
X0109219Y0084630D01*
X0110542Y0074528D02*
X0107542Y0074528D01*
X0107542Y0071528D01*
X0107042Y0071528D01*
X0107042Y0069528D01*
X0107542Y0069528D01*
X0107542Y0066528D01*
X0108042Y0066528D01*
X0108042Y0064528D01*
X0107542Y0064528D01*
X0107542Y0061528D01*
X0107042Y0061528D01*
X0107042Y0059528D01*
X0107542Y0059528D01*
X0107542Y0056528D01*
X0110542Y0056528D01*
X0123542Y0056528D01*
X0124542Y0056528D01*
X0124542Y0058028D01*
X0123542Y0058028D01*
X0122542Y0058028D01*
X0122542Y0063028D01*
X0123542Y0063028D01*
X0123542Y0064528D01*
X0111042Y0064528D01*
X0112042Y0065528D01*
X0111042Y0066528D01*
X0123542Y0066528D01*
X0123542Y0064528D01*
X0123542Y0066528D02*
X0123542Y0068028D01*
X0122542Y0068028D01*
X0122542Y0073028D01*
X0123542Y0073028D01*
X0123542Y0074528D01*
X0124542Y0074528D01*
X0124542Y0073028D01*
X0123542Y0073028D01*
X0123542Y0074528D02*
X0110542Y0074528D01*
X0110542Y0067028D01*
X0111042Y0066528D01*
X0111042Y0064528D02*
X0110542Y0064028D01*
X0110542Y0056528D01*
X0110620Y0047402D02*
X0107620Y0047402D01*
X0107620Y0044402D01*
X0107120Y0044402D01*
X0107120Y0042402D01*
X0107620Y0042402D01*
X0107620Y0039402D01*
X0108120Y0039402D01*
X0108120Y0037402D01*
X0107620Y0037402D01*
X0107620Y0034402D01*
X0107120Y0034402D01*
X0107120Y0032402D01*
X0107620Y0032402D01*
X0107620Y0029402D01*
X0110620Y0029402D01*
X0123620Y0029402D01*
X0124620Y0029402D01*
X0124620Y0030902D01*
X0123620Y0030902D01*
X0122620Y0030902D01*
X0122620Y0035902D01*
X0123620Y0035902D01*
X0123620Y0037402D01*
X0111120Y0037402D01*
X0112120Y0038402D01*
X0111120Y0039402D01*
X0123620Y0039402D01*
X0123620Y0037402D01*
X0123620Y0035902D02*
X0124620Y0035902D01*
X0124620Y0040902D01*
X0123620Y0040902D01*
X0123620Y0039402D01*
X0123620Y0040902D02*
X0122620Y0040902D01*
X0122620Y0045902D01*
X0123620Y0045902D01*
X0123620Y0047402D01*
X0124620Y0047402D01*
X0124620Y0045902D01*
X0123620Y0045902D01*
X0123620Y0047402D02*
X0110620Y0047402D01*
X0110620Y0039902D01*
X0111120Y0039402D01*
X0111120Y0037402D02*
X0110620Y0036902D01*
X0110620Y0029402D01*
X0109613Y0020843D02*
X0106613Y0020843D01*
X0106613Y0021343D01*
X0104613Y0021343D01*
X0104613Y0020843D01*
X0101613Y0020843D01*
X0101613Y0020343D01*
X0099613Y0020343D01*
X0099613Y0020843D01*
X0096613Y0020843D01*
X0096613Y0021343D01*
X0094613Y0021343D01*
X0094613Y0020843D01*
X0091613Y0020843D01*
X0091613Y0020343D01*
X0089613Y0020343D01*
X0089613Y0020843D01*
X0086613Y0020843D01*
X0086613Y0021343D01*
X0084613Y0021343D01*
X0084613Y0020843D01*
X0081613Y0020843D01*
X0081613Y0020343D01*
X0079613Y0020343D01*
X0079613Y0020843D01*
X0076613Y0020843D01*
X0076613Y0021343D01*
X0074613Y0021343D01*
X0074613Y0020843D01*
X0071613Y0020843D01*
X0071613Y0017843D01*
X0079113Y0017843D01*
X0079613Y0017343D01*
X0079613Y0004843D01*
X0081613Y0004843D01*
X0081613Y0017343D01*
X0082113Y0017843D01*
X0089613Y0017843D01*
X0089613Y0004843D01*
X0091613Y0004843D01*
X0091613Y0017843D01*
X0099113Y0017843D01*
X0099613Y0017343D01*
X0099613Y0004843D01*
X0101613Y0004843D01*
X0101613Y0017343D01*
X0102113Y0017843D02*
X0100613Y0016343D01*
X0099613Y0017343D01*
X0102113Y0017843D02*
X0109613Y0017843D01*
X0109613Y0020843D01*
X0109613Y0017843D02*
X0109613Y0004843D01*
X0109613Y0003843D01*
X0108113Y0003843D01*
X0108113Y0004843D01*
X0109613Y0004843D01*
X0109613Y0003843D02*
X0109613Y0001843D01*
X0101613Y0001843D01*
X0101613Y0002343D01*
X0099613Y0002343D01*
X0099613Y0001843D01*
X0091613Y0001843D01*
X0091613Y0002343D01*
X0089613Y0002343D01*
X0089613Y0001843D01*
X0081613Y0001843D01*
X0081613Y0002343D01*
X0079613Y0002343D01*
X0079613Y0001843D01*
X0071613Y0001843D01*
X0071613Y0003843D01*
X0071613Y0004843D01*
X0073113Y0004843D01*
X0073113Y0005843D01*
X0078113Y0005843D01*
X0078113Y0004843D01*
X0079613Y0004843D01*
X0081613Y0004843D02*
X0083113Y0004843D01*
X0083113Y0005843D01*
X0088113Y0005843D01*
X0088113Y0004843D01*
X0089613Y0004843D01*
X0088113Y0004843D02*
X0088113Y0003843D01*
X0093113Y0003843D01*
X0093113Y0004843D01*
X0091613Y0004843D01*
X0093113Y0004843D02*
X0093113Y0005843D01*
X0098113Y0005843D01*
X0098113Y0004843D01*
X0099613Y0004843D01*
X0098113Y0004843D02*
X0098113Y0003843D01*
X0103113Y0003843D01*
X0103113Y0004843D01*
X0103113Y0005843D01*
X0108113Y0005843D01*
X0108113Y0004843D01*
X0103113Y0004843D02*
X0101613Y0004843D01*
X0091613Y0017843D02*
X0089613Y0017843D01*
X0081613Y0017343D02*
X0080613Y0016343D01*
X0079613Y0017343D01*
X0071613Y0017843D02*
X0071613Y0004843D01*
X0071613Y0003843D02*
X0073113Y0003843D01*
X0073113Y0004843D01*
X0078113Y0004843D02*
X0078113Y0003843D01*
X0083113Y0003843D01*
X0083113Y0004843D01*
X0123620Y0029402D02*
X0123620Y0030902D01*
X0124620Y0029402D02*
X0126620Y0029402D01*
X0126620Y0037402D01*
X0126120Y0037402D01*
X0126120Y0039402D01*
X0126620Y0039402D01*
X0126620Y0047402D01*
X0124620Y0047402D01*
X0124542Y0056528D02*
X0126542Y0056528D01*
X0126542Y0064528D01*
X0126042Y0064528D01*
X0126042Y0066528D01*
X0126542Y0066528D01*
X0126542Y0074528D01*
X0124542Y0074528D01*
X0124542Y0068028D02*
X0123542Y0068028D01*
X0124542Y0068028D02*
X0124542Y0063028D01*
X0123542Y0063028D01*
X0123542Y0058028D02*
X0123542Y0056528D01*
X0102719Y0097630D02*
X0102719Y0098630D01*
X0097719Y0098630D01*
X0097719Y0097630D01*
X0099219Y0097630D02*
X0101219Y0097630D01*
X0092719Y0097630D02*
X0092719Y0098630D01*
X0087719Y0098630D01*
X0087719Y0097630D01*
X0089219Y0097630D02*
X0091219Y0097630D01*
D32*
X0103466Y0085723D02*
X0106869Y0085723D01*
X0106869Y0084589D02*
X0106869Y0086857D01*
X0104600Y0084589D02*
X0103466Y0085723D01*
X0111635Y0062280D02*
X0111635Y0058878D01*
X0110501Y0058878D02*
X0112769Y0058878D01*
X0110501Y0061146D02*
X0111635Y0062280D01*
X0111714Y0035154D02*
X0111714Y0031752D01*
X0112848Y0031752D02*
X0110579Y0031752D01*
X0110579Y0034020D02*
X0111714Y0035154D01*
X0077363Y0017061D02*
X0077363Y0014793D01*
X0077363Y0015927D02*
X0073960Y0015927D01*
X0075094Y0014793D01*
D33*
X0083290Y0021709D02*
X0032109Y0021709D01*
X0032109Y0081709D01*
X0083290Y0081709D01*
X0083290Y0021709D01*
M02*
