G75*
%MOIN*%
%OFA0B0*%
%FSLAX25Y25*%
%IPPOS*%
%LPD*%
%AMOC8*
5,1,8,0,0,1.08239X$1,22.5*
%
%ADD10C,0.05600*%
%ADD11C,0.05937*%
%ADD12R,0.05937X0.05937*%
%ADD13C,0.02400*%
%ADD14C,0.01600*%
D10*
X0075613Y0008043D02*
X0075613Y0013643D01*
X0085613Y0013643D02*
X0085613Y0008043D01*
X0095613Y0008043D02*
X0095613Y0013643D01*
X0105613Y0013643D02*
X0105613Y0008043D01*
X0114820Y0033402D02*
X0120420Y0033402D01*
X0120420Y0043402D02*
X0114820Y0043402D01*
X0114742Y0060528D02*
X0120342Y0060528D01*
X0120342Y0070528D02*
X0114742Y0070528D01*
X0105219Y0088830D02*
X0105219Y0094430D01*
X0095219Y0094430D02*
X0095219Y0088830D01*
X0085219Y0088830D02*
X0085219Y0094430D01*
X0075219Y0094430D02*
X0075219Y0088830D01*
D11*
X0078920Y0064209D03*
X0068920Y0059209D03*
X0078920Y0054209D03*
X0068920Y0049209D03*
X0078920Y0044209D03*
X0068920Y0039209D03*
X0078920Y0034209D03*
D12*
X0068920Y0069209D03*
D13*
X0078920Y0064209D02*
X0079038Y0064209D01*
X0079038Y0076984D01*
X0076282Y0079740D01*
X0076282Y0090567D01*
X0075219Y0091630D01*
X0085219Y0091630D02*
X0086124Y0090724D01*
X0086124Y0058087D01*
X0082246Y0054209D01*
X0078920Y0054209D01*
X0084156Y0048244D02*
X0080199Y0044307D01*
X0078920Y0044209D01*
X0084156Y0048244D02*
X0095219Y0059307D01*
X0095219Y0091630D01*
X0103841Y0090252D02*
X0105219Y0091630D01*
X0103841Y0090252D02*
X0103841Y0054150D01*
X0083900Y0034209D01*
X0078920Y0034209D01*
D14*
X0066439Y0022654D02*
X0058565Y0030528D01*
X0058565Y0040370D01*
X0067404Y0049209D01*
X0068920Y0049209D01*
X0068920Y0039209D02*
X0068920Y0033953D01*
X0076282Y0026591D01*
X0086124Y0026591D01*
X0101872Y0042339D01*
X0116557Y0042339D01*
X0117620Y0043402D01*
X0117620Y0033402D02*
X0116715Y0032496D01*
X0103841Y0032496D01*
X0093998Y0022654D01*
X0066439Y0022654D01*
M02*
