G75*
%MOIN*%
%OFA0B0*%
%FSLAX25Y25*%
%IPPOS*%
%LPD*%
%AMOC8*
5,1,8,0,0,1.08239X$1,22.5*
%
%ADD10C,0.00400*%
%ADD11R,0.00100X0.01200*%
%ADD12R,0.00100X0.01400*%
%ADD13R,0.00100X0.07800*%
%ADD14R,0.00100X0.01600*%
%ADD15R,0.00100X0.01800*%
%ADD16R,0.00100X0.08200*%
%ADD17R,0.00100X0.02000*%
%ADD18R,0.00100X0.08600*%
%ADD19R,0.00100X0.02200*%
%ADD20R,0.00100X0.08800*%
%ADD21R,0.00100X0.09000*%
%ADD22R,0.00100X0.09200*%
%ADD23R,0.00100X0.09400*%
%ADD24R,0.00100X0.09600*%
%ADD25R,0.00100X0.09800*%
%ADD26R,0.00100X0.02600*%
%ADD27R,0.00100X0.02400*%
%ADD28R,0.00100X0.07200*%
%ADD29R,0.00100X0.08400*%
%ADD30R,0.00100X0.08000*%
%ADD31C,0.00600*%
%ADD32C,0.00500*%
%ADD33C,0.00800*%
D10*
X0111915Y0064991D02*
X0112682Y0064224D01*
X0114217Y0064224D01*
X0114984Y0064991D01*
X0114984Y0066526D01*
X0113450Y0066526D01*
X0111915Y0068060D02*
X0111915Y0064991D01*
X0111915Y0068060D02*
X0112682Y0068828D01*
X0114217Y0068828D01*
X0114984Y0068060D01*
X0116519Y0068828D02*
X0119588Y0064224D01*
X0119588Y0068828D01*
X0121123Y0068828D02*
X0123425Y0068828D01*
X0124192Y0068060D01*
X0124192Y0064991D01*
X0123425Y0064224D01*
X0121123Y0064224D01*
X0121123Y0068828D01*
X0116519Y0068828D02*
X0116519Y0064224D01*
X0116185Y0039300D02*
X0114651Y0039300D01*
X0113883Y0038533D01*
X0113883Y0037765D01*
X0114651Y0036998D01*
X0116185Y0036998D01*
X0116953Y0036231D01*
X0116953Y0035463D01*
X0116185Y0034696D01*
X0114651Y0034696D01*
X0113883Y0035463D01*
X0114351Y0034660D02*
X0114351Y0033126D01*
X0113584Y0033893D02*
X0116653Y0033893D01*
X0117420Y0034660D01*
X0118487Y0034696D02*
X0120022Y0034696D01*
X0119255Y0034696D02*
X0119255Y0039300D01*
X0120022Y0039300D02*
X0118487Y0039300D01*
X0116953Y0038533D02*
X0116185Y0039300D01*
X0121557Y0038533D02*
X0121557Y0035463D01*
X0122324Y0034696D01*
X0123859Y0034696D01*
X0124626Y0035463D01*
X0124626Y0036998D01*
X0123091Y0036998D01*
X0121557Y0038533D02*
X0122324Y0039300D01*
X0123859Y0039300D01*
X0124626Y0038533D01*
X0117420Y0030824D02*
X0117420Y0029289D01*
X0116653Y0028522D01*
X0115119Y0028522D01*
X0114351Y0029289D01*
X0114351Y0030824D01*
X0115119Y0031591D01*
X0115886Y0031591D01*
X0115886Y0028522D01*
X0115119Y0026987D02*
X0117420Y0026987D01*
X0115119Y0026987D02*
X0114351Y0026220D01*
X0114351Y0023918D01*
X0117420Y0023918D01*
X0114351Y0022383D02*
X0114351Y0021616D01*
X0115886Y0020081D01*
X0117420Y0020081D02*
X0114351Y0020081D01*
X0115119Y0018546D02*
X0115886Y0018546D01*
X0115886Y0015477D01*
X0116653Y0015477D02*
X0115119Y0015477D01*
X0114351Y0016244D01*
X0114351Y0017779D01*
X0115119Y0018546D01*
X0117420Y0017779D02*
X0117420Y0016244D01*
X0116653Y0015477D01*
X0117420Y0013942D02*
X0115119Y0013942D01*
X0114351Y0013175D01*
X0114351Y0011641D01*
X0115119Y0010873D01*
X0114351Y0009339D02*
X0114351Y0007804D01*
X0113584Y0008571D02*
X0116653Y0008571D01*
X0117420Y0009339D01*
X0117420Y0010873D02*
X0112817Y0010873D01*
X0112817Y0006269D02*
X0112817Y0003200D01*
X0117420Y0003200D01*
X0117420Y0006269D01*
X0115119Y0004735D02*
X0115119Y0003200D01*
X0120691Y0003967D02*
X0121458Y0003200D01*
X0124527Y0003200D01*
X0125294Y0003967D01*
X0125294Y0005502D01*
X0124527Y0006269D01*
X0125294Y0007804D02*
X0120691Y0007804D01*
X0125294Y0010873D01*
X0120691Y0010873D01*
X0121458Y0012408D02*
X0120691Y0013175D01*
X0120691Y0014710D01*
X0121458Y0015477D01*
X0124527Y0015477D02*
X0125294Y0014710D01*
X0125294Y0013175D01*
X0124527Y0012408D01*
X0121458Y0012408D01*
X0121458Y0006269D02*
X0120691Y0005502D01*
X0120691Y0003967D01*
D11*
X0124643Y0075581D03*
X0124743Y0075581D03*
X0114943Y0075581D03*
X0114843Y0075581D03*
X0114843Y0083381D03*
X0114943Y0083381D03*
X0124643Y0083381D03*
X0124743Y0083381D03*
D12*
X0124743Y0079481D03*
X0124643Y0079481D03*
X0114943Y0079481D03*
X0114843Y0079481D03*
D13*
X0124643Y0089881D03*
X0124743Y0089881D03*
X0120743Y0091681D03*
X0120643Y0091681D03*
X0114943Y0091881D03*
X0114843Y0091881D03*
D14*
X0115043Y0083381D03*
X0115143Y0083381D03*
X0124443Y0083381D03*
X0124543Y0083381D03*
X0124543Y0075581D03*
X0124443Y0075581D03*
X0115143Y0075581D03*
X0115043Y0075581D03*
D15*
X0115043Y0079481D03*
X0115143Y0079481D03*
X0115243Y0079481D03*
X0115343Y0079481D03*
X0124243Y0079481D03*
X0124343Y0079481D03*
X0124443Y0079481D03*
X0124543Y0079481D03*
D16*
X0124543Y0090081D03*
X0124443Y0090081D03*
X0120543Y0091481D03*
X0120443Y0091481D03*
X0119143Y0090281D03*
X0119043Y0090281D03*
D17*
X0115343Y0083381D03*
X0115243Y0083381D03*
X0124243Y0083381D03*
X0124343Y0083381D03*
X0124343Y0075581D03*
X0124243Y0075581D03*
X0124143Y0075581D03*
X0124043Y0075581D03*
X0115543Y0075581D03*
X0115443Y0075581D03*
X0115343Y0075581D03*
X0115243Y0075581D03*
D18*
X0119843Y0090881D03*
X0119943Y0090881D03*
X0120043Y0091081D03*
X0120143Y0091081D03*
X0124243Y0090281D03*
X0124343Y0090281D03*
X0115343Y0091481D03*
X0115243Y0091481D03*
D19*
X0117443Y0087081D03*
X0117543Y0087081D03*
X0117643Y0087081D03*
X0117743Y0087081D03*
X0117843Y0087081D03*
X0117943Y0087081D03*
X0118043Y0087081D03*
X0118143Y0087081D03*
X0118243Y0087081D03*
X0118343Y0087081D03*
X0118343Y0083281D03*
X0118243Y0083281D03*
X0118143Y0083281D03*
X0118043Y0083281D03*
X0117943Y0083281D03*
X0117843Y0083281D03*
X0117743Y0083281D03*
X0117643Y0083281D03*
X0117543Y0083281D03*
X0117443Y0083281D03*
X0117343Y0083281D03*
X0117243Y0083281D03*
X0117143Y0083281D03*
X0117043Y0083281D03*
X0116943Y0083281D03*
X0116843Y0083281D03*
X0116743Y0083281D03*
X0116643Y0083281D03*
X0116543Y0083281D03*
X0116443Y0083281D03*
X0116343Y0083281D03*
X0116243Y0083281D03*
X0116143Y0083281D03*
X0116043Y0083281D03*
X0115943Y0083281D03*
X0115843Y0083281D03*
X0115743Y0083281D03*
X0115643Y0083281D03*
X0115543Y0083281D03*
X0115443Y0083281D03*
X0118443Y0083281D03*
X0118543Y0083281D03*
X0118643Y0083281D03*
X0118743Y0083281D03*
X0118843Y0083281D03*
X0118943Y0083281D03*
X0119043Y0083281D03*
X0119143Y0083281D03*
X0119243Y0083281D03*
X0119343Y0083281D03*
X0119443Y0083281D03*
X0119543Y0083281D03*
X0119643Y0083281D03*
X0119743Y0083281D03*
X0119843Y0083281D03*
X0119943Y0083281D03*
X0120043Y0083281D03*
X0120143Y0083281D03*
X0120243Y0083281D03*
X0120343Y0083281D03*
X0120443Y0083281D03*
X0120543Y0083281D03*
X0120643Y0083281D03*
X0120743Y0083281D03*
X0120843Y0083281D03*
X0120943Y0083281D03*
X0121043Y0083281D03*
X0121143Y0083281D03*
X0121243Y0083281D03*
X0121343Y0083281D03*
X0121443Y0083281D03*
X0121543Y0083281D03*
X0121643Y0083281D03*
X0121743Y0083281D03*
X0121843Y0083281D03*
X0121943Y0083281D03*
X0122043Y0083281D03*
X0122143Y0083281D03*
X0122243Y0083281D03*
X0122343Y0083281D03*
X0122443Y0083281D03*
X0122543Y0083281D03*
X0122643Y0083281D03*
X0122743Y0083281D03*
X0122843Y0083281D03*
X0122943Y0083281D03*
X0123043Y0083281D03*
X0123143Y0083281D03*
X0123243Y0083281D03*
X0123343Y0083281D03*
X0123443Y0083281D03*
X0123543Y0083281D03*
X0123643Y0083281D03*
X0123743Y0083281D03*
X0123843Y0083281D03*
X0123943Y0083281D03*
X0124043Y0083281D03*
X0124143Y0083281D03*
X0124143Y0079481D03*
X0124043Y0079481D03*
X0123943Y0079481D03*
X0123843Y0079481D03*
X0123743Y0079481D03*
X0123643Y0079481D03*
X0123543Y0079481D03*
X0123443Y0079481D03*
X0123343Y0079481D03*
X0123243Y0079481D03*
X0123143Y0079481D03*
X0123043Y0079481D03*
X0122943Y0079481D03*
X0122843Y0079481D03*
X0122743Y0079481D03*
X0122643Y0079481D03*
X0122543Y0079481D03*
X0122443Y0079481D03*
X0122343Y0079481D03*
X0122243Y0079481D03*
X0122143Y0079481D03*
X0122043Y0079481D03*
X0121943Y0079481D03*
X0121843Y0079481D03*
X0121743Y0079481D03*
X0121643Y0079481D03*
X0121543Y0079481D03*
X0121443Y0079481D03*
X0121343Y0079481D03*
X0121243Y0079481D03*
X0121143Y0079481D03*
X0121043Y0079481D03*
X0120943Y0079481D03*
X0120843Y0079481D03*
X0120743Y0079481D03*
X0120643Y0079481D03*
X0120543Y0079481D03*
X0120443Y0079481D03*
X0120343Y0079481D03*
X0120243Y0079481D03*
X0120143Y0079481D03*
X0120043Y0079481D03*
X0119943Y0079481D03*
X0119843Y0079481D03*
X0119743Y0079481D03*
X0119643Y0079481D03*
X0119543Y0079481D03*
X0119443Y0079481D03*
X0119343Y0079481D03*
X0119243Y0079481D03*
X0119143Y0079481D03*
X0119043Y0079481D03*
X0118943Y0079481D03*
X0118843Y0079481D03*
X0118743Y0079481D03*
X0118643Y0079481D03*
X0118543Y0079481D03*
X0118443Y0079481D03*
X0118343Y0079481D03*
X0118243Y0079481D03*
X0118143Y0079481D03*
X0118043Y0079481D03*
X0117943Y0079481D03*
X0117843Y0079481D03*
X0117743Y0079481D03*
X0117643Y0079481D03*
X0117543Y0079481D03*
X0117443Y0079481D03*
X0117343Y0079481D03*
X0117243Y0079481D03*
X0117143Y0079481D03*
X0117043Y0079481D03*
X0116943Y0079481D03*
X0116843Y0079481D03*
X0116743Y0079481D03*
X0116643Y0079481D03*
X0116543Y0079481D03*
X0116443Y0079481D03*
X0116343Y0079481D03*
X0116243Y0079481D03*
X0116143Y0079481D03*
X0116043Y0079481D03*
X0115943Y0079481D03*
X0115843Y0079481D03*
X0115743Y0079481D03*
X0115643Y0079481D03*
X0115543Y0079481D03*
X0115443Y0079481D03*
X0115643Y0075681D03*
X0115743Y0075681D03*
X0115843Y0075681D03*
X0115943Y0075681D03*
X0116043Y0075681D03*
X0116143Y0075681D03*
X0116243Y0075681D03*
X0116343Y0075681D03*
X0116443Y0075681D03*
X0116543Y0075681D03*
X0116643Y0075681D03*
X0116743Y0075681D03*
X0116843Y0075681D03*
X0116943Y0075681D03*
X0117043Y0075681D03*
X0117143Y0075681D03*
X0117243Y0075681D03*
X0117343Y0075681D03*
X0117443Y0075681D03*
X0117543Y0075681D03*
X0117643Y0075681D03*
X0117743Y0075681D03*
X0117843Y0075681D03*
X0117943Y0075681D03*
X0118043Y0075681D03*
X0118143Y0075681D03*
X0118243Y0075681D03*
X0118343Y0075681D03*
X0118443Y0075681D03*
X0118543Y0075681D03*
X0118643Y0075681D03*
X0118743Y0075681D03*
X0118843Y0075681D03*
X0118943Y0075681D03*
X0119043Y0075681D03*
X0119143Y0075681D03*
X0119243Y0075681D03*
X0119343Y0075681D03*
X0119443Y0075681D03*
X0119543Y0075681D03*
X0119643Y0075681D03*
X0119743Y0075681D03*
X0119843Y0075681D03*
X0119943Y0075681D03*
X0120043Y0075681D03*
X0120143Y0075681D03*
X0120243Y0075681D03*
X0120343Y0075681D03*
X0120443Y0075681D03*
X0120543Y0075681D03*
X0120643Y0075681D03*
X0120743Y0075681D03*
X0120843Y0075681D03*
X0120943Y0075681D03*
X0121043Y0075681D03*
X0121143Y0075681D03*
X0121243Y0075681D03*
X0121343Y0075681D03*
X0121443Y0075681D03*
X0121543Y0075681D03*
X0121643Y0075681D03*
X0121743Y0075681D03*
X0121843Y0075681D03*
X0121943Y0075681D03*
X0122043Y0075681D03*
X0122143Y0075681D03*
X0122243Y0075681D03*
X0122343Y0075681D03*
X0122443Y0075681D03*
X0122543Y0075681D03*
X0122643Y0075681D03*
X0122743Y0075681D03*
X0122843Y0075681D03*
X0122943Y0075681D03*
X0123043Y0075681D03*
X0123143Y0075681D03*
X0123243Y0075681D03*
X0123343Y0075681D03*
X0123443Y0075681D03*
X0123543Y0075681D03*
X0123643Y0075681D03*
X0123743Y0075681D03*
X0123843Y0075681D03*
X0123943Y0075681D03*
X0122143Y0094681D03*
X0122043Y0094681D03*
X0121943Y0094681D03*
X0121843Y0094681D03*
X0121743Y0094681D03*
X0121643Y0094681D03*
X0121543Y0094681D03*
X0121443Y0094681D03*
D20*
X0124043Y0090381D03*
X0124143Y0090381D03*
X0115543Y0091381D03*
X0115443Y0091381D03*
D21*
X0115643Y0091281D03*
X0115743Y0091281D03*
X0123843Y0090481D03*
X0123943Y0090481D03*
D22*
X0123743Y0090581D03*
X0123643Y0090581D03*
X0115943Y0091181D03*
X0115843Y0091181D03*
D23*
X0116043Y0091081D03*
X0116143Y0091081D03*
X0123243Y0090681D03*
X0123343Y0090681D03*
X0123443Y0090681D03*
X0123543Y0090681D03*
D24*
X0123143Y0090781D03*
X0123043Y0090781D03*
X0122943Y0090781D03*
X0122843Y0090781D03*
X0116743Y0090981D03*
X0116643Y0090981D03*
X0116543Y0090981D03*
X0116443Y0090981D03*
X0116343Y0090981D03*
X0116243Y0090981D03*
D25*
X0116843Y0090881D03*
X0116943Y0090881D03*
X0122643Y0090881D03*
X0122743Y0090881D03*
D26*
X0122543Y0094481D03*
X0122443Y0094481D03*
X0121143Y0094481D03*
X0121043Y0094481D03*
X0117143Y0087281D03*
X0117043Y0087281D03*
D27*
X0117243Y0087181D03*
X0117343Y0087181D03*
X0118443Y0087181D03*
X0118543Y0087181D03*
X0121243Y0094581D03*
X0121343Y0094581D03*
X0122243Y0094581D03*
X0122343Y0094581D03*
D28*
X0120943Y0091981D03*
X0120843Y0091981D03*
X0118743Y0089581D03*
X0118643Y0089581D03*
D29*
X0119243Y0090381D03*
X0119343Y0090381D03*
X0119443Y0090581D03*
X0119543Y0090581D03*
X0119643Y0090781D03*
X0119743Y0090781D03*
X0120243Y0091181D03*
X0120343Y0091181D03*
X0115143Y0091581D03*
X0115043Y0091581D03*
D30*
X0118843Y0089981D03*
X0118943Y0089981D03*
D31*
X0109219Y0084661D02*
X0109219Y0081661D01*
X0106219Y0081661D01*
X0106219Y0081161D01*
X0104219Y0081161D01*
X0104219Y0081661D01*
X0101219Y0081661D01*
X0101219Y0082161D01*
X0099219Y0082161D01*
X0099219Y0081661D01*
X0096219Y0081661D01*
X0096219Y0081161D01*
X0094219Y0081161D01*
X0094219Y0081661D01*
X0091219Y0081661D01*
X0091219Y0082161D01*
X0089219Y0082161D01*
X0089219Y0081661D01*
X0086219Y0081661D01*
X0086219Y0081161D01*
X0084219Y0081161D01*
X0084219Y0081661D01*
X0081219Y0081661D01*
X0081219Y0082161D01*
X0079219Y0082161D01*
X0079219Y0081661D01*
X0076219Y0081661D01*
X0076219Y0081161D01*
X0074219Y0081161D01*
X0074219Y0081661D01*
X0071219Y0081661D01*
X0071219Y0084661D01*
X0078719Y0084661D01*
X0080219Y0086161D01*
X0081219Y0085161D01*
X0081719Y0084661D01*
X0089219Y0084661D01*
X0089219Y0097661D01*
X0087719Y0097661D01*
X0087719Y0096661D01*
X0082719Y0096661D01*
X0082719Y0097661D01*
X0081219Y0097661D01*
X0081219Y0085161D01*
X0079219Y0085161D02*
X0079219Y0097661D01*
X0077719Y0097661D01*
X0077719Y0096661D01*
X0072719Y0096661D01*
X0072719Y0097661D01*
X0071219Y0097661D01*
X0071219Y0098661D01*
X0072719Y0098661D01*
X0072719Y0097661D01*
X0071219Y0097661D02*
X0071219Y0084661D01*
X0077719Y0097661D02*
X0077719Y0098661D01*
X0082719Y0098661D01*
X0082719Y0097661D01*
X0081219Y0097661D02*
X0079219Y0097661D01*
X0079219Y0100161D02*
X0079219Y0100661D01*
X0071219Y0100661D01*
X0071219Y0098661D01*
X0079219Y0100161D02*
X0081219Y0100161D01*
X0081219Y0100661D01*
X0089219Y0100661D01*
X0089219Y0100161D01*
X0091219Y0100161D01*
X0091219Y0100661D01*
X0099219Y0100661D01*
X0099219Y0100161D01*
X0101219Y0100161D01*
X0101219Y0100661D01*
X0109219Y0100661D01*
X0109219Y0098661D01*
X0109219Y0097661D01*
X0107719Y0097661D01*
X0107719Y0096661D01*
X0102719Y0096661D01*
X0102719Y0097661D01*
X0101219Y0097661D01*
X0101219Y0085161D01*
X0100219Y0086161D01*
X0099219Y0085161D01*
X0099219Y0097661D01*
X0097719Y0097661D01*
X0097719Y0096661D01*
X0092719Y0096661D01*
X0092719Y0097661D01*
X0091219Y0097661D01*
X0091219Y0084661D01*
X0089219Y0084661D01*
X0091219Y0084661D02*
X0098719Y0084661D01*
X0099219Y0085161D01*
X0101219Y0085161D02*
X0101719Y0084661D01*
X0109219Y0084661D01*
X0109219Y0097661D01*
X0109219Y0098661D02*
X0107719Y0098661D01*
X0107719Y0097661D01*
X0102719Y0097661D02*
X0102719Y0098661D01*
X0097719Y0098661D01*
X0097719Y0097661D01*
X0099219Y0097661D02*
X0101219Y0097661D01*
X0092719Y0097661D02*
X0092719Y0098661D01*
X0087719Y0098661D01*
X0087719Y0097661D01*
X0089219Y0097661D02*
X0091219Y0097661D01*
X0107542Y0060780D02*
X0107542Y0057780D01*
X0107042Y0057780D01*
X0107042Y0055780D01*
X0107542Y0055780D01*
X0107542Y0052780D01*
X0108042Y0052780D01*
X0108042Y0050780D01*
X0107542Y0050780D01*
X0107542Y0047780D01*
X0107042Y0047780D01*
X0107042Y0045780D01*
X0107542Y0045780D01*
X0107542Y0042780D01*
X0110542Y0042780D01*
X0123542Y0042780D01*
X0124542Y0042780D01*
X0124542Y0044280D01*
X0123542Y0044280D01*
X0122542Y0044280D01*
X0122542Y0049280D01*
X0123542Y0049280D01*
X0123542Y0050780D01*
X0111042Y0050780D01*
X0112042Y0051780D01*
X0111042Y0052780D01*
X0123542Y0052780D01*
X0123542Y0050780D01*
X0123542Y0049280D02*
X0124542Y0049280D01*
X0124542Y0054280D01*
X0123542Y0054280D01*
X0123542Y0052780D01*
X0123542Y0054280D02*
X0122542Y0054280D01*
X0122542Y0059280D01*
X0123542Y0059280D01*
X0123542Y0060780D01*
X0124542Y0060780D01*
X0124542Y0059280D01*
X0123542Y0059280D01*
X0123542Y0060780D02*
X0110542Y0060780D01*
X0107542Y0060780D01*
X0110542Y0060780D02*
X0110542Y0053280D01*
X0111042Y0052780D01*
X0111042Y0050780D02*
X0110542Y0050280D01*
X0110542Y0042780D01*
X0123542Y0042780D02*
X0123542Y0044280D01*
X0124542Y0042780D02*
X0126542Y0042780D01*
X0126542Y0050780D01*
X0126042Y0050780D01*
X0126042Y0052780D01*
X0126542Y0052780D01*
X0126542Y0060780D01*
X0124542Y0060780D01*
X0109613Y0020874D02*
X0106613Y0020874D01*
X0106613Y0021374D01*
X0104613Y0021374D01*
X0104613Y0020874D01*
X0101613Y0020874D01*
X0101613Y0020374D01*
X0099613Y0020374D01*
X0099613Y0020874D01*
X0096613Y0020874D01*
X0096613Y0021374D01*
X0094613Y0021374D01*
X0094613Y0020874D01*
X0091613Y0020874D01*
X0091613Y0020374D01*
X0089613Y0020374D01*
X0089613Y0020874D01*
X0086613Y0020874D01*
X0086613Y0021374D01*
X0084613Y0021374D01*
X0084613Y0020874D01*
X0081613Y0020874D01*
X0081613Y0020374D01*
X0079613Y0020374D01*
X0079613Y0020874D01*
X0076613Y0020874D01*
X0076613Y0021374D01*
X0074613Y0021374D01*
X0074613Y0020874D01*
X0071613Y0020874D01*
X0071613Y0017874D01*
X0079113Y0017874D01*
X0079613Y0017374D01*
X0079613Y0004874D01*
X0081613Y0004874D01*
X0081613Y0017374D01*
X0082113Y0017874D01*
X0089613Y0017874D01*
X0089613Y0004874D01*
X0091613Y0004874D01*
X0091613Y0017874D01*
X0099113Y0017874D01*
X0099613Y0017374D01*
X0099613Y0004874D01*
X0101613Y0004874D01*
X0101613Y0017374D01*
X0102113Y0017874D02*
X0100613Y0016374D01*
X0099613Y0017374D01*
X0102113Y0017874D02*
X0109613Y0017874D01*
X0109613Y0020874D01*
X0109613Y0017874D02*
X0109613Y0004874D01*
X0109613Y0003874D01*
X0108113Y0003874D01*
X0108113Y0004874D01*
X0109613Y0004874D01*
X0109613Y0003874D02*
X0109613Y0001874D01*
X0101613Y0001874D01*
X0101613Y0002374D01*
X0099613Y0002374D01*
X0099613Y0001874D01*
X0091613Y0001874D01*
X0091613Y0002374D01*
X0089613Y0002374D01*
X0089613Y0001874D01*
X0081613Y0001874D01*
X0081613Y0002374D01*
X0079613Y0002374D01*
X0079613Y0001874D01*
X0071613Y0001874D01*
X0071613Y0003874D01*
X0071613Y0004874D01*
X0073113Y0004874D01*
X0073113Y0005874D01*
X0078113Y0005874D01*
X0078113Y0004874D01*
X0079613Y0004874D01*
X0081613Y0004874D02*
X0083113Y0004874D01*
X0083113Y0005874D01*
X0088113Y0005874D01*
X0088113Y0004874D01*
X0089613Y0004874D01*
X0088113Y0004874D02*
X0088113Y0003874D01*
X0093113Y0003874D01*
X0093113Y0004874D01*
X0091613Y0004874D01*
X0093113Y0004874D02*
X0093113Y0005874D01*
X0098113Y0005874D01*
X0098113Y0004874D01*
X0099613Y0004874D01*
X0098113Y0004874D02*
X0098113Y0003874D01*
X0103113Y0003874D01*
X0103113Y0004874D01*
X0103113Y0005874D01*
X0108113Y0005874D01*
X0108113Y0004874D01*
X0103113Y0004874D02*
X0101613Y0004874D01*
X0091613Y0017874D02*
X0089613Y0017874D01*
X0081613Y0017374D02*
X0080613Y0016374D01*
X0079613Y0017374D01*
X0071613Y0017874D02*
X0071613Y0004874D01*
X0071613Y0003874D02*
X0073113Y0003874D01*
X0073113Y0004874D01*
X0078113Y0004874D02*
X0078113Y0003874D01*
X0083113Y0003874D01*
X0083113Y0004874D01*
D32*
X0077363Y0014824D02*
X0077363Y0017093D01*
X0077363Y0015958D02*
X0073960Y0015958D01*
X0075094Y0014824D01*
X0110501Y0045130D02*
X0112769Y0045130D01*
X0111635Y0045130D02*
X0111635Y0048532D01*
X0110501Y0047398D01*
X0106869Y0084620D02*
X0106869Y0086889D01*
X0106869Y0085755D02*
X0103466Y0085755D01*
X0104600Y0084620D01*
D33*
X0083290Y0021740D02*
X0032109Y0021740D01*
X0032109Y0081740D01*
X0083290Y0081740D01*
X0083290Y0021740D01*
M02*
