G75*
%MOIN*%
%OFA0B0*%
%FSLAX25Y25*%
%IPPOS*%
%LPD*%
%AMOC8*
5,1,8,0,0,1.08239X$1,22.5*
%
%ADD10C,0.00000*%
%ADD11C,0.05600*%
%ADD12C,0.05937*%
%ADD13R,0.05937X0.05937*%
%ADD14C,0.02400*%
%ADD15C,0.04000*%
D10*
X0034943Y0001031D02*
X0034943Y0101425D01*
X0129431Y0101425D01*
X0129431Y0001031D01*
X0034943Y0001031D01*
X0046361Y0009299D02*
X0046363Y0009457D01*
X0046369Y0009615D01*
X0046379Y0009773D01*
X0046393Y0009931D01*
X0046411Y0010088D01*
X0046432Y0010245D01*
X0046458Y0010401D01*
X0046488Y0010557D01*
X0046521Y0010712D01*
X0046559Y0010865D01*
X0046600Y0011018D01*
X0046645Y0011170D01*
X0046694Y0011321D01*
X0046747Y0011470D01*
X0046803Y0011618D01*
X0046863Y0011764D01*
X0046927Y0011909D01*
X0046995Y0012052D01*
X0047066Y0012194D01*
X0047140Y0012334D01*
X0047218Y0012471D01*
X0047300Y0012607D01*
X0047384Y0012741D01*
X0047473Y0012872D01*
X0047564Y0013001D01*
X0047659Y0013128D01*
X0047756Y0013253D01*
X0047857Y0013375D01*
X0047961Y0013494D01*
X0048068Y0013611D01*
X0048178Y0013725D01*
X0048291Y0013836D01*
X0048406Y0013945D01*
X0048524Y0014050D01*
X0048645Y0014152D01*
X0048768Y0014252D01*
X0048894Y0014348D01*
X0049022Y0014441D01*
X0049152Y0014531D01*
X0049285Y0014617D01*
X0049420Y0014701D01*
X0049556Y0014780D01*
X0049695Y0014857D01*
X0049836Y0014929D01*
X0049978Y0014999D01*
X0050122Y0015064D01*
X0050268Y0015126D01*
X0050415Y0015184D01*
X0050564Y0015239D01*
X0050714Y0015290D01*
X0050865Y0015337D01*
X0051017Y0015380D01*
X0051170Y0015419D01*
X0051325Y0015455D01*
X0051480Y0015486D01*
X0051636Y0015514D01*
X0051792Y0015538D01*
X0051949Y0015558D01*
X0052107Y0015574D01*
X0052264Y0015586D01*
X0052423Y0015594D01*
X0052581Y0015598D01*
X0052739Y0015598D01*
X0052897Y0015594D01*
X0053056Y0015586D01*
X0053213Y0015574D01*
X0053371Y0015558D01*
X0053528Y0015538D01*
X0053684Y0015514D01*
X0053840Y0015486D01*
X0053995Y0015455D01*
X0054150Y0015419D01*
X0054303Y0015380D01*
X0054455Y0015337D01*
X0054606Y0015290D01*
X0054756Y0015239D01*
X0054905Y0015184D01*
X0055052Y0015126D01*
X0055198Y0015064D01*
X0055342Y0014999D01*
X0055484Y0014929D01*
X0055625Y0014857D01*
X0055764Y0014780D01*
X0055900Y0014701D01*
X0056035Y0014617D01*
X0056168Y0014531D01*
X0056298Y0014441D01*
X0056426Y0014348D01*
X0056552Y0014252D01*
X0056675Y0014152D01*
X0056796Y0014050D01*
X0056914Y0013945D01*
X0057029Y0013836D01*
X0057142Y0013725D01*
X0057252Y0013611D01*
X0057359Y0013494D01*
X0057463Y0013375D01*
X0057564Y0013253D01*
X0057661Y0013128D01*
X0057756Y0013001D01*
X0057847Y0012872D01*
X0057936Y0012741D01*
X0058020Y0012607D01*
X0058102Y0012471D01*
X0058180Y0012334D01*
X0058254Y0012194D01*
X0058325Y0012052D01*
X0058393Y0011909D01*
X0058457Y0011764D01*
X0058517Y0011618D01*
X0058573Y0011470D01*
X0058626Y0011321D01*
X0058675Y0011170D01*
X0058720Y0011018D01*
X0058761Y0010865D01*
X0058799Y0010712D01*
X0058832Y0010557D01*
X0058862Y0010401D01*
X0058888Y0010245D01*
X0058909Y0010088D01*
X0058927Y0009931D01*
X0058941Y0009773D01*
X0058951Y0009615D01*
X0058957Y0009457D01*
X0058959Y0009299D01*
X0058957Y0009141D01*
X0058951Y0008983D01*
X0058941Y0008825D01*
X0058927Y0008667D01*
X0058909Y0008510D01*
X0058888Y0008353D01*
X0058862Y0008197D01*
X0058832Y0008041D01*
X0058799Y0007886D01*
X0058761Y0007733D01*
X0058720Y0007580D01*
X0058675Y0007428D01*
X0058626Y0007277D01*
X0058573Y0007128D01*
X0058517Y0006980D01*
X0058457Y0006834D01*
X0058393Y0006689D01*
X0058325Y0006546D01*
X0058254Y0006404D01*
X0058180Y0006264D01*
X0058102Y0006127D01*
X0058020Y0005991D01*
X0057936Y0005857D01*
X0057847Y0005726D01*
X0057756Y0005597D01*
X0057661Y0005470D01*
X0057564Y0005345D01*
X0057463Y0005223D01*
X0057359Y0005104D01*
X0057252Y0004987D01*
X0057142Y0004873D01*
X0057029Y0004762D01*
X0056914Y0004653D01*
X0056796Y0004548D01*
X0056675Y0004446D01*
X0056552Y0004346D01*
X0056426Y0004250D01*
X0056298Y0004157D01*
X0056168Y0004067D01*
X0056035Y0003981D01*
X0055900Y0003897D01*
X0055764Y0003818D01*
X0055625Y0003741D01*
X0055484Y0003669D01*
X0055342Y0003599D01*
X0055198Y0003534D01*
X0055052Y0003472D01*
X0054905Y0003414D01*
X0054756Y0003359D01*
X0054606Y0003308D01*
X0054455Y0003261D01*
X0054303Y0003218D01*
X0054150Y0003179D01*
X0053995Y0003143D01*
X0053840Y0003112D01*
X0053684Y0003084D01*
X0053528Y0003060D01*
X0053371Y0003040D01*
X0053213Y0003024D01*
X0053056Y0003012D01*
X0052897Y0003004D01*
X0052739Y0003000D01*
X0052581Y0003000D01*
X0052423Y0003004D01*
X0052264Y0003012D01*
X0052107Y0003024D01*
X0051949Y0003040D01*
X0051792Y0003060D01*
X0051636Y0003084D01*
X0051480Y0003112D01*
X0051325Y0003143D01*
X0051170Y0003179D01*
X0051017Y0003218D01*
X0050865Y0003261D01*
X0050714Y0003308D01*
X0050564Y0003359D01*
X0050415Y0003414D01*
X0050268Y0003472D01*
X0050122Y0003534D01*
X0049978Y0003599D01*
X0049836Y0003669D01*
X0049695Y0003741D01*
X0049556Y0003818D01*
X0049420Y0003897D01*
X0049285Y0003981D01*
X0049152Y0004067D01*
X0049022Y0004157D01*
X0048894Y0004250D01*
X0048768Y0004346D01*
X0048645Y0004446D01*
X0048524Y0004548D01*
X0048406Y0004653D01*
X0048291Y0004762D01*
X0048178Y0004873D01*
X0048068Y0004987D01*
X0047961Y0005104D01*
X0047857Y0005223D01*
X0047756Y0005345D01*
X0047659Y0005470D01*
X0047564Y0005597D01*
X0047473Y0005726D01*
X0047384Y0005857D01*
X0047300Y0005991D01*
X0047218Y0006127D01*
X0047140Y0006264D01*
X0047066Y0006404D01*
X0046995Y0006546D01*
X0046927Y0006689D01*
X0046863Y0006834D01*
X0046803Y0006980D01*
X0046747Y0007128D01*
X0046694Y0007277D01*
X0046645Y0007428D01*
X0046600Y0007580D01*
X0046559Y0007733D01*
X0046521Y0007886D01*
X0046488Y0008041D01*
X0046458Y0008197D01*
X0046432Y0008353D01*
X0046411Y0008510D01*
X0046393Y0008667D01*
X0046379Y0008825D01*
X0046369Y0008983D01*
X0046363Y0009141D01*
X0046361Y0009299D01*
X0037621Y0029240D02*
X0037623Y0029398D01*
X0037629Y0029556D01*
X0037639Y0029714D01*
X0037653Y0029872D01*
X0037671Y0030029D01*
X0037692Y0030186D01*
X0037718Y0030342D01*
X0037748Y0030498D01*
X0037781Y0030653D01*
X0037819Y0030806D01*
X0037860Y0030959D01*
X0037905Y0031111D01*
X0037954Y0031262D01*
X0038007Y0031411D01*
X0038063Y0031559D01*
X0038123Y0031705D01*
X0038187Y0031850D01*
X0038255Y0031993D01*
X0038326Y0032135D01*
X0038400Y0032275D01*
X0038478Y0032412D01*
X0038560Y0032548D01*
X0038644Y0032682D01*
X0038733Y0032813D01*
X0038824Y0032942D01*
X0038919Y0033069D01*
X0039016Y0033194D01*
X0039117Y0033316D01*
X0039221Y0033435D01*
X0039328Y0033552D01*
X0039438Y0033666D01*
X0039551Y0033777D01*
X0039666Y0033886D01*
X0039784Y0033991D01*
X0039905Y0034093D01*
X0040028Y0034193D01*
X0040154Y0034289D01*
X0040282Y0034382D01*
X0040412Y0034472D01*
X0040545Y0034558D01*
X0040680Y0034642D01*
X0040816Y0034721D01*
X0040955Y0034798D01*
X0041096Y0034870D01*
X0041238Y0034940D01*
X0041382Y0035005D01*
X0041528Y0035067D01*
X0041675Y0035125D01*
X0041824Y0035180D01*
X0041974Y0035231D01*
X0042125Y0035278D01*
X0042277Y0035321D01*
X0042430Y0035360D01*
X0042585Y0035396D01*
X0042740Y0035427D01*
X0042896Y0035455D01*
X0043052Y0035479D01*
X0043209Y0035499D01*
X0043367Y0035515D01*
X0043524Y0035527D01*
X0043683Y0035535D01*
X0043841Y0035539D01*
X0043999Y0035539D01*
X0044157Y0035535D01*
X0044316Y0035527D01*
X0044473Y0035515D01*
X0044631Y0035499D01*
X0044788Y0035479D01*
X0044944Y0035455D01*
X0045100Y0035427D01*
X0045255Y0035396D01*
X0045410Y0035360D01*
X0045563Y0035321D01*
X0045715Y0035278D01*
X0045866Y0035231D01*
X0046016Y0035180D01*
X0046165Y0035125D01*
X0046312Y0035067D01*
X0046458Y0035005D01*
X0046602Y0034940D01*
X0046744Y0034870D01*
X0046885Y0034798D01*
X0047024Y0034721D01*
X0047160Y0034642D01*
X0047295Y0034558D01*
X0047428Y0034472D01*
X0047558Y0034382D01*
X0047686Y0034289D01*
X0047812Y0034193D01*
X0047935Y0034093D01*
X0048056Y0033991D01*
X0048174Y0033886D01*
X0048289Y0033777D01*
X0048402Y0033666D01*
X0048512Y0033552D01*
X0048619Y0033435D01*
X0048723Y0033316D01*
X0048824Y0033194D01*
X0048921Y0033069D01*
X0049016Y0032942D01*
X0049107Y0032813D01*
X0049196Y0032682D01*
X0049280Y0032548D01*
X0049362Y0032412D01*
X0049440Y0032275D01*
X0049514Y0032135D01*
X0049585Y0031993D01*
X0049653Y0031850D01*
X0049717Y0031705D01*
X0049777Y0031559D01*
X0049833Y0031411D01*
X0049886Y0031262D01*
X0049935Y0031111D01*
X0049980Y0030959D01*
X0050021Y0030806D01*
X0050059Y0030653D01*
X0050092Y0030498D01*
X0050122Y0030342D01*
X0050148Y0030186D01*
X0050169Y0030029D01*
X0050187Y0029872D01*
X0050201Y0029714D01*
X0050211Y0029556D01*
X0050217Y0029398D01*
X0050219Y0029240D01*
X0050217Y0029082D01*
X0050211Y0028924D01*
X0050201Y0028766D01*
X0050187Y0028608D01*
X0050169Y0028451D01*
X0050148Y0028294D01*
X0050122Y0028138D01*
X0050092Y0027982D01*
X0050059Y0027827D01*
X0050021Y0027674D01*
X0049980Y0027521D01*
X0049935Y0027369D01*
X0049886Y0027218D01*
X0049833Y0027069D01*
X0049777Y0026921D01*
X0049717Y0026775D01*
X0049653Y0026630D01*
X0049585Y0026487D01*
X0049514Y0026345D01*
X0049440Y0026205D01*
X0049362Y0026068D01*
X0049280Y0025932D01*
X0049196Y0025798D01*
X0049107Y0025667D01*
X0049016Y0025538D01*
X0048921Y0025411D01*
X0048824Y0025286D01*
X0048723Y0025164D01*
X0048619Y0025045D01*
X0048512Y0024928D01*
X0048402Y0024814D01*
X0048289Y0024703D01*
X0048174Y0024594D01*
X0048056Y0024489D01*
X0047935Y0024387D01*
X0047812Y0024287D01*
X0047686Y0024191D01*
X0047558Y0024098D01*
X0047428Y0024008D01*
X0047295Y0023922D01*
X0047160Y0023838D01*
X0047024Y0023759D01*
X0046885Y0023682D01*
X0046744Y0023610D01*
X0046602Y0023540D01*
X0046458Y0023475D01*
X0046312Y0023413D01*
X0046165Y0023355D01*
X0046016Y0023300D01*
X0045866Y0023249D01*
X0045715Y0023202D01*
X0045563Y0023159D01*
X0045410Y0023120D01*
X0045255Y0023084D01*
X0045100Y0023053D01*
X0044944Y0023025D01*
X0044788Y0023001D01*
X0044631Y0022981D01*
X0044473Y0022965D01*
X0044316Y0022953D01*
X0044157Y0022945D01*
X0043999Y0022941D01*
X0043841Y0022941D01*
X0043683Y0022945D01*
X0043524Y0022953D01*
X0043367Y0022965D01*
X0043209Y0022981D01*
X0043052Y0023001D01*
X0042896Y0023025D01*
X0042740Y0023053D01*
X0042585Y0023084D01*
X0042430Y0023120D01*
X0042277Y0023159D01*
X0042125Y0023202D01*
X0041974Y0023249D01*
X0041824Y0023300D01*
X0041675Y0023355D01*
X0041528Y0023413D01*
X0041382Y0023475D01*
X0041238Y0023540D01*
X0041096Y0023610D01*
X0040955Y0023682D01*
X0040816Y0023759D01*
X0040680Y0023838D01*
X0040545Y0023922D01*
X0040412Y0024008D01*
X0040282Y0024098D01*
X0040154Y0024191D01*
X0040028Y0024287D01*
X0039905Y0024387D01*
X0039784Y0024489D01*
X0039666Y0024594D01*
X0039551Y0024703D01*
X0039438Y0024814D01*
X0039328Y0024928D01*
X0039221Y0025045D01*
X0039117Y0025164D01*
X0039016Y0025286D01*
X0038919Y0025411D01*
X0038824Y0025538D01*
X0038733Y0025667D01*
X0038644Y0025798D01*
X0038560Y0025932D01*
X0038478Y0026068D01*
X0038400Y0026205D01*
X0038326Y0026345D01*
X0038255Y0026487D01*
X0038187Y0026630D01*
X0038123Y0026775D01*
X0038063Y0026921D01*
X0038007Y0027069D01*
X0037954Y0027218D01*
X0037905Y0027369D01*
X0037860Y0027521D01*
X0037819Y0027674D01*
X0037781Y0027827D01*
X0037748Y0027982D01*
X0037718Y0028138D01*
X0037692Y0028294D01*
X0037671Y0028451D01*
X0037653Y0028608D01*
X0037639Y0028766D01*
X0037629Y0028924D01*
X0037623Y0029082D01*
X0037621Y0029240D01*
X0037621Y0074240D02*
X0037623Y0074398D01*
X0037629Y0074556D01*
X0037639Y0074714D01*
X0037653Y0074872D01*
X0037671Y0075029D01*
X0037692Y0075186D01*
X0037718Y0075342D01*
X0037748Y0075498D01*
X0037781Y0075653D01*
X0037819Y0075806D01*
X0037860Y0075959D01*
X0037905Y0076111D01*
X0037954Y0076262D01*
X0038007Y0076411D01*
X0038063Y0076559D01*
X0038123Y0076705D01*
X0038187Y0076850D01*
X0038255Y0076993D01*
X0038326Y0077135D01*
X0038400Y0077275D01*
X0038478Y0077412D01*
X0038560Y0077548D01*
X0038644Y0077682D01*
X0038733Y0077813D01*
X0038824Y0077942D01*
X0038919Y0078069D01*
X0039016Y0078194D01*
X0039117Y0078316D01*
X0039221Y0078435D01*
X0039328Y0078552D01*
X0039438Y0078666D01*
X0039551Y0078777D01*
X0039666Y0078886D01*
X0039784Y0078991D01*
X0039905Y0079093D01*
X0040028Y0079193D01*
X0040154Y0079289D01*
X0040282Y0079382D01*
X0040412Y0079472D01*
X0040545Y0079558D01*
X0040680Y0079642D01*
X0040816Y0079721D01*
X0040955Y0079798D01*
X0041096Y0079870D01*
X0041238Y0079940D01*
X0041382Y0080005D01*
X0041528Y0080067D01*
X0041675Y0080125D01*
X0041824Y0080180D01*
X0041974Y0080231D01*
X0042125Y0080278D01*
X0042277Y0080321D01*
X0042430Y0080360D01*
X0042585Y0080396D01*
X0042740Y0080427D01*
X0042896Y0080455D01*
X0043052Y0080479D01*
X0043209Y0080499D01*
X0043367Y0080515D01*
X0043524Y0080527D01*
X0043683Y0080535D01*
X0043841Y0080539D01*
X0043999Y0080539D01*
X0044157Y0080535D01*
X0044316Y0080527D01*
X0044473Y0080515D01*
X0044631Y0080499D01*
X0044788Y0080479D01*
X0044944Y0080455D01*
X0045100Y0080427D01*
X0045255Y0080396D01*
X0045410Y0080360D01*
X0045563Y0080321D01*
X0045715Y0080278D01*
X0045866Y0080231D01*
X0046016Y0080180D01*
X0046165Y0080125D01*
X0046312Y0080067D01*
X0046458Y0080005D01*
X0046602Y0079940D01*
X0046744Y0079870D01*
X0046885Y0079798D01*
X0047024Y0079721D01*
X0047160Y0079642D01*
X0047295Y0079558D01*
X0047428Y0079472D01*
X0047558Y0079382D01*
X0047686Y0079289D01*
X0047812Y0079193D01*
X0047935Y0079093D01*
X0048056Y0078991D01*
X0048174Y0078886D01*
X0048289Y0078777D01*
X0048402Y0078666D01*
X0048512Y0078552D01*
X0048619Y0078435D01*
X0048723Y0078316D01*
X0048824Y0078194D01*
X0048921Y0078069D01*
X0049016Y0077942D01*
X0049107Y0077813D01*
X0049196Y0077682D01*
X0049280Y0077548D01*
X0049362Y0077412D01*
X0049440Y0077275D01*
X0049514Y0077135D01*
X0049585Y0076993D01*
X0049653Y0076850D01*
X0049717Y0076705D01*
X0049777Y0076559D01*
X0049833Y0076411D01*
X0049886Y0076262D01*
X0049935Y0076111D01*
X0049980Y0075959D01*
X0050021Y0075806D01*
X0050059Y0075653D01*
X0050092Y0075498D01*
X0050122Y0075342D01*
X0050148Y0075186D01*
X0050169Y0075029D01*
X0050187Y0074872D01*
X0050201Y0074714D01*
X0050211Y0074556D01*
X0050217Y0074398D01*
X0050219Y0074240D01*
X0050217Y0074082D01*
X0050211Y0073924D01*
X0050201Y0073766D01*
X0050187Y0073608D01*
X0050169Y0073451D01*
X0050148Y0073294D01*
X0050122Y0073138D01*
X0050092Y0072982D01*
X0050059Y0072827D01*
X0050021Y0072674D01*
X0049980Y0072521D01*
X0049935Y0072369D01*
X0049886Y0072218D01*
X0049833Y0072069D01*
X0049777Y0071921D01*
X0049717Y0071775D01*
X0049653Y0071630D01*
X0049585Y0071487D01*
X0049514Y0071345D01*
X0049440Y0071205D01*
X0049362Y0071068D01*
X0049280Y0070932D01*
X0049196Y0070798D01*
X0049107Y0070667D01*
X0049016Y0070538D01*
X0048921Y0070411D01*
X0048824Y0070286D01*
X0048723Y0070164D01*
X0048619Y0070045D01*
X0048512Y0069928D01*
X0048402Y0069814D01*
X0048289Y0069703D01*
X0048174Y0069594D01*
X0048056Y0069489D01*
X0047935Y0069387D01*
X0047812Y0069287D01*
X0047686Y0069191D01*
X0047558Y0069098D01*
X0047428Y0069008D01*
X0047295Y0068922D01*
X0047160Y0068838D01*
X0047024Y0068759D01*
X0046885Y0068682D01*
X0046744Y0068610D01*
X0046602Y0068540D01*
X0046458Y0068475D01*
X0046312Y0068413D01*
X0046165Y0068355D01*
X0046016Y0068300D01*
X0045866Y0068249D01*
X0045715Y0068202D01*
X0045563Y0068159D01*
X0045410Y0068120D01*
X0045255Y0068084D01*
X0045100Y0068053D01*
X0044944Y0068025D01*
X0044788Y0068001D01*
X0044631Y0067981D01*
X0044473Y0067965D01*
X0044316Y0067953D01*
X0044157Y0067945D01*
X0043999Y0067941D01*
X0043841Y0067941D01*
X0043683Y0067945D01*
X0043524Y0067953D01*
X0043367Y0067965D01*
X0043209Y0067981D01*
X0043052Y0068001D01*
X0042896Y0068025D01*
X0042740Y0068053D01*
X0042585Y0068084D01*
X0042430Y0068120D01*
X0042277Y0068159D01*
X0042125Y0068202D01*
X0041974Y0068249D01*
X0041824Y0068300D01*
X0041675Y0068355D01*
X0041528Y0068413D01*
X0041382Y0068475D01*
X0041238Y0068540D01*
X0041096Y0068610D01*
X0040955Y0068682D01*
X0040816Y0068759D01*
X0040680Y0068838D01*
X0040545Y0068922D01*
X0040412Y0069008D01*
X0040282Y0069098D01*
X0040154Y0069191D01*
X0040028Y0069287D01*
X0039905Y0069387D01*
X0039784Y0069489D01*
X0039666Y0069594D01*
X0039551Y0069703D01*
X0039438Y0069814D01*
X0039328Y0069928D01*
X0039221Y0070045D01*
X0039117Y0070164D01*
X0039016Y0070286D01*
X0038919Y0070411D01*
X0038824Y0070538D01*
X0038733Y0070667D01*
X0038644Y0070798D01*
X0038560Y0070932D01*
X0038478Y0071068D01*
X0038400Y0071205D01*
X0038326Y0071345D01*
X0038255Y0071487D01*
X0038187Y0071630D01*
X0038123Y0071775D01*
X0038063Y0071921D01*
X0038007Y0072069D01*
X0037954Y0072218D01*
X0037905Y0072369D01*
X0037860Y0072521D01*
X0037819Y0072674D01*
X0037781Y0072827D01*
X0037748Y0072982D01*
X0037718Y0073138D01*
X0037692Y0073294D01*
X0037671Y0073451D01*
X0037653Y0073608D01*
X0037639Y0073766D01*
X0037629Y0073924D01*
X0037623Y0074082D01*
X0037621Y0074240D01*
X0046361Y0093157D02*
X0046363Y0093315D01*
X0046369Y0093473D01*
X0046379Y0093631D01*
X0046393Y0093789D01*
X0046411Y0093946D01*
X0046432Y0094103D01*
X0046458Y0094259D01*
X0046488Y0094415D01*
X0046521Y0094570D01*
X0046559Y0094723D01*
X0046600Y0094876D01*
X0046645Y0095028D01*
X0046694Y0095179D01*
X0046747Y0095328D01*
X0046803Y0095476D01*
X0046863Y0095622D01*
X0046927Y0095767D01*
X0046995Y0095910D01*
X0047066Y0096052D01*
X0047140Y0096192D01*
X0047218Y0096329D01*
X0047300Y0096465D01*
X0047384Y0096599D01*
X0047473Y0096730D01*
X0047564Y0096859D01*
X0047659Y0096986D01*
X0047756Y0097111D01*
X0047857Y0097233D01*
X0047961Y0097352D01*
X0048068Y0097469D01*
X0048178Y0097583D01*
X0048291Y0097694D01*
X0048406Y0097803D01*
X0048524Y0097908D01*
X0048645Y0098010D01*
X0048768Y0098110D01*
X0048894Y0098206D01*
X0049022Y0098299D01*
X0049152Y0098389D01*
X0049285Y0098475D01*
X0049420Y0098559D01*
X0049556Y0098638D01*
X0049695Y0098715D01*
X0049836Y0098787D01*
X0049978Y0098857D01*
X0050122Y0098922D01*
X0050268Y0098984D01*
X0050415Y0099042D01*
X0050564Y0099097D01*
X0050714Y0099148D01*
X0050865Y0099195D01*
X0051017Y0099238D01*
X0051170Y0099277D01*
X0051325Y0099313D01*
X0051480Y0099344D01*
X0051636Y0099372D01*
X0051792Y0099396D01*
X0051949Y0099416D01*
X0052107Y0099432D01*
X0052264Y0099444D01*
X0052423Y0099452D01*
X0052581Y0099456D01*
X0052739Y0099456D01*
X0052897Y0099452D01*
X0053056Y0099444D01*
X0053213Y0099432D01*
X0053371Y0099416D01*
X0053528Y0099396D01*
X0053684Y0099372D01*
X0053840Y0099344D01*
X0053995Y0099313D01*
X0054150Y0099277D01*
X0054303Y0099238D01*
X0054455Y0099195D01*
X0054606Y0099148D01*
X0054756Y0099097D01*
X0054905Y0099042D01*
X0055052Y0098984D01*
X0055198Y0098922D01*
X0055342Y0098857D01*
X0055484Y0098787D01*
X0055625Y0098715D01*
X0055764Y0098638D01*
X0055900Y0098559D01*
X0056035Y0098475D01*
X0056168Y0098389D01*
X0056298Y0098299D01*
X0056426Y0098206D01*
X0056552Y0098110D01*
X0056675Y0098010D01*
X0056796Y0097908D01*
X0056914Y0097803D01*
X0057029Y0097694D01*
X0057142Y0097583D01*
X0057252Y0097469D01*
X0057359Y0097352D01*
X0057463Y0097233D01*
X0057564Y0097111D01*
X0057661Y0096986D01*
X0057756Y0096859D01*
X0057847Y0096730D01*
X0057936Y0096599D01*
X0058020Y0096465D01*
X0058102Y0096329D01*
X0058180Y0096192D01*
X0058254Y0096052D01*
X0058325Y0095910D01*
X0058393Y0095767D01*
X0058457Y0095622D01*
X0058517Y0095476D01*
X0058573Y0095328D01*
X0058626Y0095179D01*
X0058675Y0095028D01*
X0058720Y0094876D01*
X0058761Y0094723D01*
X0058799Y0094570D01*
X0058832Y0094415D01*
X0058862Y0094259D01*
X0058888Y0094103D01*
X0058909Y0093946D01*
X0058927Y0093789D01*
X0058941Y0093631D01*
X0058951Y0093473D01*
X0058957Y0093315D01*
X0058959Y0093157D01*
X0058957Y0092999D01*
X0058951Y0092841D01*
X0058941Y0092683D01*
X0058927Y0092525D01*
X0058909Y0092368D01*
X0058888Y0092211D01*
X0058862Y0092055D01*
X0058832Y0091899D01*
X0058799Y0091744D01*
X0058761Y0091591D01*
X0058720Y0091438D01*
X0058675Y0091286D01*
X0058626Y0091135D01*
X0058573Y0090986D01*
X0058517Y0090838D01*
X0058457Y0090692D01*
X0058393Y0090547D01*
X0058325Y0090404D01*
X0058254Y0090262D01*
X0058180Y0090122D01*
X0058102Y0089985D01*
X0058020Y0089849D01*
X0057936Y0089715D01*
X0057847Y0089584D01*
X0057756Y0089455D01*
X0057661Y0089328D01*
X0057564Y0089203D01*
X0057463Y0089081D01*
X0057359Y0088962D01*
X0057252Y0088845D01*
X0057142Y0088731D01*
X0057029Y0088620D01*
X0056914Y0088511D01*
X0056796Y0088406D01*
X0056675Y0088304D01*
X0056552Y0088204D01*
X0056426Y0088108D01*
X0056298Y0088015D01*
X0056168Y0087925D01*
X0056035Y0087839D01*
X0055900Y0087755D01*
X0055764Y0087676D01*
X0055625Y0087599D01*
X0055484Y0087527D01*
X0055342Y0087457D01*
X0055198Y0087392D01*
X0055052Y0087330D01*
X0054905Y0087272D01*
X0054756Y0087217D01*
X0054606Y0087166D01*
X0054455Y0087119D01*
X0054303Y0087076D01*
X0054150Y0087037D01*
X0053995Y0087001D01*
X0053840Y0086970D01*
X0053684Y0086942D01*
X0053528Y0086918D01*
X0053371Y0086898D01*
X0053213Y0086882D01*
X0053056Y0086870D01*
X0052897Y0086862D01*
X0052739Y0086858D01*
X0052581Y0086858D01*
X0052423Y0086862D01*
X0052264Y0086870D01*
X0052107Y0086882D01*
X0051949Y0086898D01*
X0051792Y0086918D01*
X0051636Y0086942D01*
X0051480Y0086970D01*
X0051325Y0087001D01*
X0051170Y0087037D01*
X0051017Y0087076D01*
X0050865Y0087119D01*
X0050714Y0087166D01*
X0050564Y0087217D01*
X0050415Y0087272D01*
X0050268Y0087330D01*
X0050122Y0087392D01*
X0049978Y0087457D01*
X0049836Y0087527D01*
X0049695Y0087599D01*
X0049556Y0087676D01*
X0049420Y0087755D01*
X0049285Y0087839D01*
X0049152Y0087925D01*
X0049022Y0088015D01*
X0048894Y0088108D01*
X0048768Y0088204D01*
X0048645Y0088304D01*
X0048524Y0088406D01*
X0048406Y0088511D01*
X0048291Y0088620D01*
X0048178Y0088731D01*
X0048068Y0088845D01*
X0047961Y0088962D01*
X0047857Y0089081D01*
X0047756Y0089203D01*
X0047659Y0089328D01*
X0047564Y0089455D01*
X0047473Y0089584D01*
X0047384Y0089715D01*
X0047300Y0089849D01*
X0047218Y0089985D01*
X0047140Y0090122D01*
X0047066Y0090262D01*
X0046995Y0090404D01*
X0046927Y0090547D01*
X0046863Y0090692D01*
X0046803Y0090838D01*
X0046747Y0090986D01*
X0046694Y0091135D01*
X0046645Y0091286D01*
X0046600Y0091438D01*
X0046559Y0091591D01*
X0046521Y0091744D01*
X0046488Y0091899D01*
X0046458Y0092055D01*
X0046432Y0092211D01*
X0046411Y0092368D01*
X0046393Y0092525D01*
X0046379Y0092683D01*
X0046369Y0092841D01*
X0046363Y0092999D01*
X0046361Y0093157D01*
D11*
X0075219Y0094461D02*
X0075219Y0088861D01*
X0085219Y0088861D02*
X0085219Y0094461D01*
X0095219Y0094461D02*
X0095219Y0088861D01*
X0105219Y0088861D02*
X0105219Y0094461D01*
X0114742Y0056780D02*
X0120342Y0056780D01*
X0120342Y0046780D02*
X0114742Y0046780D01*
X0105613Y0013674D02*
X0105613Y0008074D01*
X0095613Y0008074D02*
X0095613Y0013674D01*
X0085613Y0013674D02*
X0085613Y0008074D01*
X0075613Y0008074D02*
X0075613Y0013674D01*
D12*
X0078920Y0034240D03*
X0068920Y0039240D03*
X0078920Y0044240D03*
X0068920Y0049240D03*
X0078920Y0054240D03*
X0068920Y0059240D03*
X0078920Y0064240D03*
D13*
X0068920Y0069240D03*
D14*
X0078920Y0064240D02*
X0087876Y0064240D01*
X0105809Y0042370D01*
X0105809Y0011071D01*
X0105613Y0010874D01*
X0095613Y0010874D02*
X0095613Y0042724D01*
X0086321Y0054378D01*
X0082994Y0054378D01*
X0078920Y0054240D01*
X0079018Y0044339D02*
X0078920Y0044240D01*
X0079018Y0044339D02*
X0083369Y0044339D01*
X0086124Y0040402D01*
X0086124Y0011386D01*
X0085613Y0010874D01*
X0075613Y0010874D02*
X0074313Y0012173D01*
X0074313Y0030559D01*
X0077994Y0034240D01*
X0078920Y0034240D01*
D15*
X0117542Y0056780D02*
X0098487Y0075835D01*
X0076282Y0075835D01*
X0069687Y0069240D01*
X0068920Y0069240D01*
M02*
